<svg width="118" height="57" viewBox="0 0 118 57" fill="none" xmlns="http://www.w3.org/2000/svg">
<path d="M9.35983 49.463C9.09999 49.463 8.88118 49.5206 8.7034 49.6359C8.52561 49.7511 8.43671 49.9274 8.43671 50.1646C8.43671 50.3544 8.50509 50.5137 8.64185 50.6425C8.77861 50.7645 8.94956 50.8763 9.1547 50.978C9.35984 51.0797 9.57865 51.1814 9.81115 51.2831C10.0505 51.3847 10.2727 51.5067 10.4778 51.6491C10.683 51.7847 10.8539 51.9541 10.9907 52.1575C11.1275 52.3541 11.1958 52.6049 11.1958 52.9099C11.1958 53.364 11.0283 53.7301 10.6932 54.008C10.3582 54.2791 9.8932 54.4147 9.2983 54.4147C8.71023 54.4147 8.25892 54.2791 7.94438 54.008C7.63667 53.7301 7.42469 53.3471 7.30844 52.859L8.15977 52.5744C8.19396 52.798 8.24866 52.9811 8.32388 53.1234C8.40594 53.2658 8.50167 53.3776 8.61107 53.4589C8.72048 53.5403 8.84016 53.5979 8.97008 53.6318C9.1 53.6589 9.23333 53.6725 9.37009 53.6725C9.60259 53.6725 9.80773 53.6182 9.98552 53.5098C10.1633 53.3945 10.2522 53.2183 10.2522 52.9811C10.2522 52.8048 10.1838 52.6591 10.0471 52.5439C9.91029 52.4286 9.73934 52.3202 9.5342 52.2185C9.32906 52.1168 9.10683 52.0151 8.8675 51.9135C8.63501 51.805 8.4162 51.6762 8.21106 51.5271C8.00592 51.378 7.83497 51.1983 7.69821 50.9882C7.56145 50.7713 7.49307 50.5035 7.49307 50.1849C7.49307 50.029 7.52384 49.8664 7.58538 49.6969C7.64693 49.5206 7.74949 49.3614 7.89309 49.219C8.04353 49.0767 8.23841 48.958 8.47774 48.8631C8.72391 48.7682 9.02478 48.7208 9.38036 48.7208C9.85218 48.7208 10.2419 48.8259 10.5496 49.036C10.8642 49.2393 11.0898 49.585 11.2266 50.0731L10.3753 50.3578C10.3001 50.0799 10.177 49.863 10.006 49.7071C9.83508 49.5444 9.61968 49.463 9.35983 49.463V49.463Z" fill="#2B3445"/>
<path d="M14.0499 49.5139C13.4755 49.5139 13.1029 49.7952 12.9319 50.3578L12.0806 50.0731C12.3541 49.1716 13.0105 48.7208 14.0499 48.7208C14.7679 48.7208 15.2842 48.9004 15.5987 49.2597C15.9201 49.6122 16.0808 50.1917 16.0808 50.9984V53.3979C16.0808 53.5064 16.1047 53.581 16.1526 53.6216C16.2073 53.6555 16.2723 53.6725 16.3475 53.6725C16.4022 53.6725 16.4603 53.6657 16.5218 53.6521C16.5834 53.6318 16.6415 53.6081 16.6962 53.581L16.8603 54.2114C16.7509 54.2656 16.6312 54.313 16.5013 54.3537C16.3714 54.3944 16.2278 54.4147 16.0705 54.4147C15.8244 54.4147 15.6158 54.3571 15.4449 54.2419C15.2808 54.1198 15.1816 53.8894 15.1474 53.5505C15.0448 53.6589 14.9286 53.7674 14.7987 53.8758C14.6687 53.9775 14.5251 54.069 14.3679 54.1504C14.2174 54.2317 14.0533 54.2961 13.8755 54.3435C13.7046 54.391 13.5234 54.4147 13.3319 54.4147C13.1268 54.4147 12.9319 54.374 12.7473 54.2927C12.5695 54.2181 12.4156 54.1131 12.2857 53.9775C12.1558 53.8419 12.0532 53.6826 11.978 53.4996C11.9028 53.3098 11.8652 53.1065 11.8652 52.8896C11.8652 52.3337 12.0532 51.8999 12.4293 51.5881C12.8122 51.2763 13.3388 51.1204 14.0089 51.1204C14.1935 51.1204 14.3781 51.1339 14.5628 51.161C14.7474 51.1882 14.9252 51.2288 15.0961 51.2831V50.6425C15.0961 50.29 15.0038 50.0155 14.8192 49.8189C14.6346 49.6155 14.3781 49.5139 14.0499 49.5139V49.5139ZM13.6294 53.6216C13.8892 53.6216 14.1422 53.5606 14.3884 53.4386C14.6414 53.3098 14.8773 53.137 15.0961 52.9201V51.9338C14.9525 51.8863 14.7987 51.8491 14.6346 51.8219C14.4704 51.7948 14.3098 51.7813 14.1525 51.7813C13.9815 51.7813 13.8174 51.7982 13.6601 51.8321C13.5029 51.866 13.3627 51.9236 13.2396 52.005C13.1234 52.0863 13.0276 52.1948 12.9524 52.3303C12.884 52.4591 12.8498 52.6184 12.8498 52.8082C12.8498 53.0319 12.9216 53.2251 13.0652 53.3878C13.2088 53.5437 13.3969 53.6216 13.6294 53.6216V53.6216Z" fill="#2B3445"/>
<path d="M18.3648 48.8733L18.4161 49.5037C18.6144 49.3003 18.8469 49.1207 19.1136 48.9648C19.3871 48.8021 19.688 48.7208 20.0162 48.7208C20.4333 48.7208 20.7684 48.7886 21.0214 48.9241C21.2744 49.0597 21.459 49.28 21.5753 49.585C21.7736 49.3614 22.0129 49.1614 22.2933 48.9851C22.5805 48.8089 22.8984 48.7208 23.2472 48.7208C23.5549 48.7208 23.8181 48.7581 24.037 48.8326C24.2626 48.9072 24.4438 49.0258 24.5806 49.1885C24.7173 49.3444 24.8165 49.5512 24.878 49.8087C24.9464 50.0663 24.9806 50.3781 24.9806 50.7442V54.2622H23.9959V50.6425C23.9959 49.8901 23.6711 49.5139 23.0215 49.5139C22.7822 49.5139 22.5531 49.5715 22.3343 49.6867C22.1155 49.7952 21.9069 49.9477 21.7086 50.1443C21.7223 50.2392 21.7326 50.3341 21.7394 50.429C21.7462 50.5239 21.7496 50.6289 21.7496 50.7442V54.2622H20.765V50.6425C20.765 49.8901 20.4402 49.5139 19.7906 49.5139C19.5649 49.5139 19.3427 49.5681 19.1239 49.6766C18.9119 49.785 18.7102 49.9307 18.5187 50.1138V54.2622H17.534V48.8733H18.3648Z" fill="#2B3445"/>
<path d="M27.5531 49.463C27.2933 49.463 27.0745 49.5206 26.8967 49.6359C26.7189 49.7511 26.63 49.9274 26.63 50.1646C26.63 50.3544 26.6984 50.5137 26.8351 50.6425C26.9719 50.7645 27.1429 50.8763 27.348 50.978C27.5531 51.0797 27.7719 51.1814 28.0044 51.2831C28.2438 51.3847 28.466 51.5067 28.6711 51.6491C28.8763 51.7847 29.0472 51.9541 29.184 52.1575C29.3207 52.3541 29.3891 52.6049 29.3891 52.9099C29.3891 53.364 29.2216 53.7301 28.8865 54.008C28.5515 54.2791 28.0865 54.4147 27.4916 54.4147C26.9035 54.4147 26.4522 54.2791 26.1377 54.008C25.83 53.7301 25.618 53.3471 25.5017 52.859L26.3531 52.5744C26.3873 52.798 26.442 52.9811 26.5172 53.1234C26.5992 53.2658 26.695 53.3776 26.8044 53.4589C26.9138 53.5403 27.0334 53.5979 27.1634 53.6318C27.2933 53.6589 27.4266 53.6725 27.5634 53.6725C27.7959 53.6725 28.001 53.6182 28.1788 53.5098C28.3566 53.3945 28.4455 53.2183 28.4455 52.9811C28.4455 52.8048 28.3771 52.6591 28.2403 52.5439C28.1036 52.4286 27.9326 52.3202 27.7275 52.2185C27.5224 52.1168 27.3001 52.0151 27.0608 51.9135C26.8283 51.805 26.6095 51.6762 26.4043 51.5271C26.1992 51.378 26.0283 51.1983 25.8915 50.9882C25.7547 50.7713 25.6864 50.5035 25.6864 50.1849C25.6864 50.029 25.7171 49.8664 25.7787 49.6969C25.8402 49.5206 25.9428 49.3614 26.0864 49.219C26.2368 49.0767 26.4317 48.958 26.671 48.8631C26.9172 48.7682 27.2181 48.7208 27.5736 48.7208C28.0455 48.7208 28.4352 48.8259 28.7429 49.036C29.0575 49.2393 29.2831 49.585 29.4199 50.0731L28.5686 50.3578C28.4933 50.0799 28.3703 49.863 28.1993 49.7071C28.0284 49.5444 27.813 49.463 27.5531 49.463V49.463Z" fill="#2B3445"/>
<path d="M34.6854 53.3766C34.6854 53.485 34.7093 53.5596 34.7572 53.6003C34.8119 53.6342 34.8768 53.6511 34.9521 53.6511C35.0068 53.6511 35.0649 53.6443 35.1264 53.6308C35.188 53.6104 35.2461 53.5867 35.3008 53.5596L35.4649 54.19C35.3555 54.2442 35.2358 54.2917 35.1059 54.3323C34.976 54.373 34.8324 54.3933 34.6751 54.3933C34.4358 54.3933 34.2341 54.3391 34.07 54.2307C33.9059 54.1222 33.8033 53.9189 33.7622 53.6206C33.5503 53.824 33.2904 54.0036 32.9827 54.1595C32.6819 54.3154 32.3263 54.3933 31.916 54.3933C31.3758 54.3933 30.9826 54.234 30.7365 53.9155C30.4903 53.5901 30.3672 53.119 30.3672 52.5021V48.8519H31.3519V52.5123C31.3519 52.8784 31.4168 53.1529 31.5467 53.3359C31.6767 53.5121 31.8955 53.6003 32.2032 53.6003C32.5041 53.6003 32.7776 53.546 33.0238 53.4376C33.2699 53.3291 33.4956 53.1834 33.7007 53.0004V48.8519H34.6854V53.3766Z" fill="#2B3445"/>
<path d="M37.0061 48.8733L37.0574 49.524C37.2693 49.3139 37.5189 49.1275 37.8061 48.9648C38.0933 48.8021 38.4147 48.7208 38.7703 48.7208C39.0917 48.7208 39.3652 48.7581 39.5908 48.8326C39.8165 48.9072 39.9977 49.0258 40.1345 49.1885C40.2781 49.3444 40.3806 49.5512 40.4422 49.8087C40.5106 50.0663 40.5447 50.3781 40.5447 50.7442V54.2622H39.5601V50.6425C39.5601 49.8901 39.2148 49.5139 38.5241 49.5139C38.2848 49.5139 38.0489 49.5681 37.8164 49.6766C37.5839 49.785 37.3651 49.9341 37.1599 50.1239V54.2622H36.1753V48.8733H37.0061Z" fill="#2B3445"/>
<path d="M44.637 53.6544C44.8695 53.6544 45.0918 53.6815 45.3037 53.7357C45.5157 53.7831 45.7038 53.8645 45.8679 53.9797C46.032 54.095 46.1619 54.2441 46.2576 54.4271C46.3534 54.6101 46.4012 54.8338 46.4012 55.0982C46.4012 55.6201 46.1927 56.0268 45.7756 56.3183C45.3584 56.6098 44.7396 56.7555 43.919 56.7555C42.2643 56.7555 41.4369 56.237 41.4369 55.1998C41.4369 54.9694 41.5052 54.7559 41.642 54.5593C41.7788 54.3627 41.96 54.2034 42.1856 54.0814C41.9395 53.8577 41.8164 53.5493 41.8164 53.1561C41.8164 52.9528 41.8574 52.7596 41.9395 52.5766C42.0215 52.3936 42.1514 52.2343 42.3292 52.0987C42.0078 51.7598 41.8471 51.3192 41.8471 50.7769C41.8471 50.4719 41.8984 50.1973 42.001 49.9533C42.1104 49.7093 42.2574 49.5059 42.442 49.3432C42.6267 49.1738 42.8455 49.045 43.0985 48.9569C43.3515 48.8687 43.6284 48.8247 43.9293 48.8247C44.2644 48.8247 44.5755 48.8823 44.8627 48.9975C45.02 48.9908 45.1567 48.923 45.273 48.7942C45.3892 48.6654 45.4473 48.4281 45.4473 48.0824H45.6525L46.2474 48.2858C46.2474 48.6383 46.1824 48.906 46.0525 49.089C45.9294 49.2653 45.7585 49.3907 45.5396 49.4653C45.6901 49.6279 45.8063 49.8211 45.8884 50.0448C45.9773 50.2617 46.0217 50.5057 46.0217 50.7769C46.0217 51.0819 45.967 51.3564 45.8576 51.6005C45.755 51.8377 45.608 52.0411 45.4166 52.2105C45.2319 52.3732 45.0097 52.4986 44.7499 52.5867C44.4969 52.6749 44.2233 52.7189 43.9293 52.7189C43.5054 52.7189 43.1361 52.6376 42.8216 52.4749C42.7395 52.5495 42.6745 52.641 42.6267 52.7494C42.5856 52.8511 42.5651 52.9562 42.5651 53.0646C42.5651 53.2341 42.6233 53.3764 42.7395 53.4917C42.8557 53.6001 43.0369 53.6544 43.2831 53.6544H44.637ZM42.7908 50.7769C42.7908 50.9938 42.825 51.1836 42.8934 51.3463C42.9617 51.5022 43.0472 51.631 43.1498 51.7327C43.2592 51.8343 43.3823 51.9089 43.519 51.9563C43.6558 52.0038 43.7925 52.0275 43.9293 52.0275C44.0661 52.0275 44.2028 52.0038 44.3396 51.9563C44.4763 51.9089 44.5994 51.8343 44.7088 51.7327C44.8182 51.631 44.9071 51.5022 44.9755 51.3463C45.0439 51.1836 45.0781 50.9938 45.0781 50.7769C45.0781 50.5532 45.0439 50.3634 44.9755 50.2075C44.9071 50.0448 44.8182 49.9126 44.7088 49.811C44.5994 49.7093 44.4763 49.6347 44.3396 49.5873C44.2028 49.5398 44.0661 49.5161 43.9293 49.5161C43.7925 49.5161 43.6558 49.5398 43.519 49.5873C43.3823 49.6347 43.2592 49.7093 43.1498 49.811C43.0472 49.9126 42.9617 50.0448 42.8934 50.2075C42.825 50.3634 42.7908 50.5532 42.7908 50.7769ZM43.3652 54.4474C43.1327 54.4474 42.9173 54.4203 42.719 54.3661C42.6233 54.4678 42.5344 54.583 42.4523 54.7118C42.3771 54.8474 42.3395 54.9931 42.3395 55.149C42.3395 55.7184 42.866 56.0031 43.919 56.0031C44.4524 56.0031 44.849 55.9319 45.1089 55.7896C45.3687 55.654 45.4986 55.4269 45.4986 55.1083C45.4986 54.966 45.4679 54.8508 45.4063 54.7626C45.3516 54.6813 45.2798 54.6169 45.1909 54.5694C45.1089 54.522 45.0131 54.4881 44.9037 54.4678C44.8011 54.4542 44.6986 54.4474 44.596 54.4474H43.3652Z" fill="#2B3445"/>
<path d="M51.276 54.7065C50.6469 54.7065 50.1409 54.4693 49.758 53.9948C49.3819 53.5135 49.1938 52.8018 49.1938 51.8596C49.1938 51.3918 49.2554 50.9817 49.3784 50.6293C49.5015 50.27 49.6691 49.9718 49.881 49.7345C50.093 49.4905 50.3426 49.3108 50.6298 49.1956C50.917 49.0736 51.2247 49.0126 51.5529 49.0126C51.8059 49.0126 52.0418 49.0533 52.2607 49.1346C52.4863 49.2092 52.6914 49.3075 52.8761 49.4295V46.9282H53.8607V53.6897C53.8607 53.7982 53.8847 53.8728 53.9325 53.9134C53.9872 53.9473 54.0522 53.9643 54.1274 53.9643C54.1821 53.9643 54.2402 53.9575 54.3018 53.9439C54.3633 53.9236 54.4215 53.8999 54.4762 53.8728L54.6403 54.5032C54.5309 54.5574 54.4112 54.6048 54.2813 54.6455C54.1514 54.6862 54.0078 54.7065 53.8505 54.7065C53.618 54.7065 53.4197 54.6557 53.2556 54.554C53.0915 54.4455 52.9889 54.2456 52.9479 53.9541C52.7496 54.1575 52.5137 54.3337 52.2401 54.4828C51.9666 54.632 51.6452 54.7065 51.276 54.7065V54.7065ZM51.4914 53.9134C51.7581 53.9134 52.0042 53.8592 52.2299 53.7508C52.4624 53.6423 52.6778 53.4999 52.8761 53.3237V50.2327C52.7188 50.1175 52.5273 50.0192 52.3017 49.9379C52.0829 49.8497 51.847 49.8057 51.5939 49.8057C51.1905 49.8057 50.8589 49.9751 50.599 50.3141C50.346 50.6462 50.2195 51.1614 50.2195 51.8596C50.2195 52.5577 50.3358 53.0763 50.5683 53.4152C50.8076 53.7474 51.1153 53.9134 51.4914 53.9134V53.9134Z" fill="#2B3445"/>
<path d="M57.578 53.6216C57.9267 53.6216 58.2276 53.5572 58.4806 53.4284C58.7405 53.2929 58.949 53.1505 59.1063 53.0014L59.5474 53.5301C59.3354 53.7674 59.0584 53.9741 58.7165 54.1504C58.3746 54.3266 57.9849 54.4147 57.5472 54.4147C57.1848 54.4147 56.8498 54.3571 56.5421 54.2419C56.2344 54.1198 55.9677 53.9402 55.742 53.703C55.5232 53.4589 55.3488 53.1607 55.2189 52.8082C55.0958 52.449 55.0343 52.0355 55.0343 51.5678C55.0343 51.1 55.0958 50.6899 55.2189 50.3375C55.342 49.9782 55.5129 49.6799 55.7318 49.4427C55.9506 49.1987 56.207 49.019 56.501 48.9038C56.8019 48.7818 57.1267 48.7208 57.4754 48.7208C57.7968 48.7208 58.0909 48.7716 58.3575 48.8733C58.6311 48.9682 58.8636 49.1173 59.055 49.3207C59.2465 49.524 59.3935 49.7782 59.4961 50.0833C59.6055 50.3815 59.6602 50.734 59.6602 51.1407V51.8524H56.0702C56.1113 52.4557 56.2685 52.9031 56.5421 53.1946C56.8224 53.4793 57.1677 53.6216 57.578 53.6216V53.6216ZM57.4857 49.5139C57.1165 49.5139 56.8019 49.6494 56.5421 49.9206C56.2891 50.1849 56.1352 50.5916 56.0805 51.1407H58.6858C58.6858 50.6188 58.5798 50.2188 58.3678 49.9409C58.1627 49.6562 57.8686 49.5139 57.4857 49.5139V49.5139Z" fill="#2B3445"/>
<path d="M61.7282 49.8972C61.9333 49.6193 62.1795 49.4024 62.4667 49.2465C62.7539 49.0905 63.0616 49.0126 63.3898 49.0126C63.7112 49.0126 63.9847 49.0499 64.2104 49.1244C64.436 49.199 64.6172 49.3176 64.754 49.4803C64.8976 49.6362 65.0002 49.843 65.0617 50.1005C65.1301 50.3581 65.1643 50.6699 65.1643 51.036V54.554H64.1796V50.9343C64.1796 50.1819 63.8411 49.8057 63.1642 49.8057C62.5966 49.8057 62.135 50.0429 61.7795 50.5174V54.554H60.7948V46.9282H61.7282V49.8972Z" fill="#2B3445"/>
<path d="M68.315 54.4147C67.6859 54.4147 67.1799 54.1775 66.7969 53.703C66.4209 53.2217 66.2328 52.51 66.2328 51.5678C66.2328 51.1 66.2943 50.6899 66.4174 50.3375C66.5405 49.9782 66.708 49.6799 66.92 49.4427C67.132 49.1987 67.3816 49.019 67.6688 48.9038C67.956 48.7818 68.2637 48.7208 68.5919 48.7208C68.8996 48.7208 69.1834 48.7784 69.4432 48.8936C69.7099 49.0021 69.9424 49.1411 70.1407 49.3105L70.4279 48.7208H70.8997V56.6516H69.9151V53.7335C69.7236 53.9233 69.4945 54.086 69.2278 54.2215C68.968 54.3503 68.6637 54.4147 68.315 54.4147V54.4147ZM68.5304 53.6216C68.7971 53.6216 69.0432 53.5674 69.2689 53.4589C69.5014 53.3505 69.7168 53.2081 69.9151 53.0319V49.9409C69.7578 49.8257 69.5663 49.7274 69.3407 49.6461C69.1219 49.5579 68.886 49.5139 68.633 49.5139C68.2295 49.5139 67.8979 49.6833 67.638 50.0223C67.385 50.3544 67.2585 50.8696 67.2585 51.5678C67.2585 52.2659 67.3748 52.7845 67.6073 53.1234C67.8466 53.4556 68.1543 53.6216 68.5304 53.6216V53.6216Z" fill="#2B3445"/>
<path d="M72.0216 51.5678C72.0216 51.1 72.0831 50.6899 72.2062 50.3375C72.3361 49.9782 72.5105 49.6799 72.7293 49.4427C72.9481 49.1987 73.208 49.019 73.5088 48.9038C73.8166 48.7818 74.1448 48.7208 74.4935 48.7208C74.8423 48.7208 75.1671 48.7818 75.4679 48.9038C75.7756 49.019 76.0389 49.1987 76.2577 49.4427C76.4834 49.6799 76.6577 49.9782 76.7808 50.3375C76.9107 50.6899 76.9757 51.1 76.9757 51.5678C76.9757 52.0355 76.9107 52.449 76.7808 52.8082C76.6577 53.1607 76.4834 53.4589 76.2577 53.703C76.0389 53.9402 75.7756 54.1198 75.4679 54.2419C75.1671 54.3571 74.8423 54.4147 74.4935 54.4147C74.1448 54.4147 73.8166 54.3571 73.5088 54.2419C73.208 54.1198 72.9481 53.9402 72.7293 53.703C72.5105 53.4589 72.3361 53.1607 72.2062 52.8082C72.0831 52.449 72.0216 52.0355 72.0216 51.5678ZM73.0473 51.5678C73.0473 52.2659 73.1806 52.7845 73.4473 53.1234C73.7208 53.4556 74.0696 53.6216 74.4935 53.6216C74.9243 53.6216 75.273 53.4556 75.5397 53.1234C75.8132 52.7845 75.95 52.2659 75.95 51.5678C75.95 50.8696 75.8132 50.3544 75.5397 50.0223C75.273 49.6833 74.9243 49.5139 74.4935 49.5139C74.0696 49.5139 73.7208 49.6833 73.4473 50.0223C73.1806 50.3544 73.0473 50.8696 73.0473 51.5678Z" fill="#2B3445"/>
<path d="M78.8886 48.8733L78.9399 49.524C79.1519 49.3139 79.4014 49.1275 79.6886 48.9648C79.9758 48.8021 80.2972 48.7208 80.6528 48.7208C80.9742 48.7208 81.2477 48.7581 81.4733 48.8326C81.699 48.9072 81.8802 49.0258 82.017 49.1885C82.1606 49.3444 82.2631 49.5512 82.3247 49.8087C82.3931 50.0663 82.4272 50.3781 82.4272 50.7442V54.2622H81.4426V50.6425C81.4426 49.8901 81.0973 49.5139 80.4066 49.5139C80.1673 49.5139 79.9314 49.5681 79.6989 49.6766C79.4664 49.785 79.2476 49.9341 79.0424 50.1239V54.2622H78.0578V48.8733H78.8886Z" fill="#2B3445"/>
<path d="M88.7227 49.0126C89.0372 49.0126 89.321 49.0736 89.574 49.1956C89.8339 49.3108 90.0527 49.4905 90.2305 49.7345C90.4151 49.9718 90.5553 50.27 90.651 50.6293C90.7536 50.9817 90.8049 51.3918 90.8049 51.8596C90.8049 52.3273 90.7433 52.7408 90.6202 53.1C90.4971 53.4525 90.3296 53.7508 90.1176 53.9948C89.9057 54.232 89.6561 54.4117 89.3689 54.5337C89.0817 54.6489 88.774 54.7065 88.4458 54.7065C88.1312 54.7065 87.8406 54.6489 87.5739 54.5337C87.3072 54.4184 87.0713 54.2727 86.8662 54.0965L86.6097 54.554H86.1379V46.9282H87.1226V49.6938C87.3141 49.5108 87.5397 49.3515 87.7995 49.216C88.0662 49.0804 88.3739 49.0126 88.7227 49.0126ZM88.5073 49.8057C88.2338 49.8057 87.9808 49.8599 87.7483 49.9684C87.5226 50.0768 87.3141 50.2226 87.1226 50.4056V53.4864C87.2799 53.6084 87.4679 53.7101 87.6867 53.7914C87.9055 53.8728 88.1449 53.9134 88.4047 53.9134C88.8082 53.9134 89.1364 53.7474 89.3894 53.4152C89.6492 53.0763 89.7792 52.5577 89.7792 51.8596C89.7792 51.1614 89.6595 50.6462 89.4202 50.3141C89.1877 49.9751 88.8834 49.8057 88.5073 49.8057Z" fill="#2B3445"/>
<path d="M91.6621 51.5678C91.6621 51.1 91.7236 50.6899 91.8467 50.3375C91.9766 49.9782 92.151 49.6799 92.3698 49.4427C92.5886 49.1987 92.8485 49.019 93.1493 48.9038C93.457 48.7818 93.7853 48.7208 94.134 48.7208C94.4827 48.7208 94.8075 48.7818 95.1084 48.9038C95.4161 49.019 95.6794 49.1987 95.8982 49.4427C96.1239 49.6799 96.2982 49.9782 96.4213 50.3375C96.5512 50.6899 96.6162 51.1 96.6162 51.5678C96.6162 52.0355 96.5512 52.449 96.4213 52.8082C96.2982 53.1607 96.1239 53.4589 95.8982 53.703C95.6794 53.9402 95.4161 54.1198 95.1084 54.2419C94.8075 54.3571 94.4827 54.4147 94.134 54.4147C93.7853 54.4147 93.457 54.3571 93.1493 54.2419C92.8485 54.1198 92.5886 53.9402 92.3698 53.703C92.151 53.4589 91.9766 53.1607 91.8467 52.8082C91.7236 52.449 91.6621 52.0355 91.6621 51.5678ZM92.6878 51.5678C92.6878 52.2659 92.8211 52.7845 93.0878 53.1234C93.3613 53.4556 93.7101 53.6216 94.134 53.6216C94.5648 53.6216 94.9135 53.4556 95.1802 53.1234C95.4537 52.7845 95.5905 52.2659 95.5905 51.5678C95.5905 50.8696 95.4537 50.3544 95.1802 50.0223C94.9135 49.6833 94.5648 49.5139 94.134 49.5139C93.7101 49.5139 93.3613 49.6833 93.0878 50.0223C92.8211 50.3544 92.6878 50.8696 92.6878 51.5678Z" fill="#2B3445"/>
<path d="M97.2131 53.7324L99.8594 49.6145H97.4183V48.8519H101.029V49.3603L98.3824 53.4782H100.977V54.2408H97.2131V53.7324Z" fill="#2B3445"/>
<path d="M101.792 51.5678C101.792 51.1 101.854 50.6899 101.977 50.3375C102.107 49.9782 102.281 49.6799 102.5 49.4427C102.719 49.1987 102.979 49.019 103.28 48.9038C103.587 48.7818 103.916 48.7208 104.264 48.7208C104.613 48.7208 104.938 48.7818 105.239 48.9038C105.546 49.019 105.81 49.1987 106.029 49.4427C106.254 49.6799 106.429 49.9782 106.552 50.3375C106.682 50.6899 106.747 51.1 106.747 51.5678C106.747 52.0355 106.682 52.449 106.552 52.8082C106.429 53.1607 106.254 53.4589 106.029 53.703C105.81 53.9402 105.546 54.1198 105.239 54.2419C104.938 54.3571 104.613 54.4147 104.264 54.4147C103.916 54.4147 103.587 54.3571 103.28 54.2419C102.979 54.1198 102.719 53.9402 102.5 53.703C102.281 53.4589 102.107 53.1607 101.977 52.8082C101.854 52.449 101.792 52.0355 101.792 51.5678ZM102.818 51.5678C102.818 52.2659 102.951 52.7845 103.218 53.1234C103.492 53.4556 103.84 53.6216 104.264 53.6216C104.695 53.6216 105.044 53.4556 105.311 53.1234C105.584 52.7845 105.721 52.2659 105.721 51.5678C105.721 50.8696 105.584 50.3544 105.311 50.0223C105.044 49.6833 104.695 49.5139 104.264 49.5139C103.84 49.5139 103.492 49.6833 103.218 50.0223C102.951 50.3544 102.818 50.8696 102.818 51.5678Z" fill="#2B3445"/>
<path d="M108.659 48.8733L108.711 49.5342C108.923 49.297 109.176 49.1072 109.47 48.9648C109.764 48.8157 110.075 48.7343 110.403 48.7208L110.454 49.4529L110.331 49.5647C110.01 49.5715 109.719 49.6291 109.459 49.7376C109.206 49.8392 108.991 49.9816 108.813 50.1646V54.2622H107.829V48.8733H108.659Z" fill="#2B3445"/>
<path d="M7.98096 34.6232C7.98096 36.8433 6.18083 38.584 3.96077 38.584C1.80013 38.584 0 36.8433 0 34.6232C0 32.4032 1.80013 30.6633 3.96077 30.6633C6.18083 30.6632 7.98096 32.4032 7.98096 34.6232Z" fill="#265897"/>
<path d="M17.8223 44.1642C14.7013 44.1642 10.5013 42.9639 10.5013 39.904C10.5013 37.3836 12.181 36.0034 14.1618 36.1239C16.202 36.2435 18.422 36.9637 20.5819 35.9432C22.2624 35.1636 23.5221 33.6629 23.5221 31.5633C23.5221 29.043 20.7023 27.4227 14.5817 25.2026C9.06088 23.2227 0.78044 20.7625 0.720215 12.5415C0.720215 9.42139 1.92057 6.48113 4.14063 4.20085C6.0612 2.28028 9.60124 0 15.7821 0C22.8019 0 27.4829 3.7207 29.043 5.94076C30.1229 7.3812 29.943 9.30095 28.8631 10.6812C27.4227 12.4813 25.2629 12.3014 23.7622 10.9815C22.6823 10.0212 20.162 7.50082 15.542 7.50082C11.521 7.50082 8.70118 9.60124 8.70118 12.5415C8.70118 14.4613 10.8016 16.0816 17.0418 18.4823C24.7225 21.4225 31.5031 24.6623 31.5031 32.0435C31.5031 37.9834 27.3625 44.1642 17.8223 44.1642Z" fill="#0F3460"/>
<path d="M70.9403 38.2829C69.2606 39.6632 66.7403 39.4833 65.2999 37.8028C64.1003 36.3624 64.0401 34.0829 65.7198 32.4024C66.1405 31.9223 66.6801 31.3225 67.1 30.8424C68.9001 28.6223 69.9206 25.5616 69.9206 22.0818C69.9206 13.3806 65.2999 8.76065 56.2992 8.76065H49.3388V39.1228C49.3388 41.2834 47.5386 43.0836 45.3186 43.0836C43.158 43.0836 41.3578 41.2834 41.3578 39.1228V5.03996C41.3578 2.88012 43.158 1.07999 45.3186 1.07999H45.3788C45.3788 1.07999 45.3788 1.07999 45.4382 1.07999H56.2992C69.6204 1.07999 77.8414 9.06013 77.8414 22.0818C77.8414 28.3822 75.3812 34.5028 70.9403 38.2829Z" fill="#0F3460"/>
<path d="M57.2595 43.0836C55.0996 43.0836 53.2987 41.2834 53.2987 39.1228C53.2987 36.9028 55.0996 35.1026 57.2595 35.1026C59.4795 35.1026 61.2797 36.9028 61.2797 39.1228C61.2797 41.2834 59.4795 43.0836 57.2595 43.0836Z" fill="#265897"/>
<path d="M111.217 20.2214C113.017 18.781 114.877 15.241 114.877 11.5203C114.877 5.82039 110.437 1.07999 102.096 1.07999H89.6753H89.615C87.4548 1.07999 85.6547 2.88013 85.6547 5.03996V39.1228C85.6547 41.3428 87.4548 43.0836 89.615 43.0836C91.8351 43.0836 93.6356 41.3428 93.6356 39.1228V25.0815H102.336C106.117 25.0815 109.417 27.0622 109.417 30.1221C109.417 31.9825 108.757 33.1226 108.517 34.2025C108.037 36.0629 108.517 37.5627 110.317 38.523C112.237 39.5427 114.637 38.9429 115.717 37.0232C116.857 35.0424 117.397 32.8223 117.397 30.0619C117.397 25.7423 114.637 21.8417 111.217 20.2214ZM101.496 18.0014H93.6356V8.10066H101.496C105.636 8.10066 107.497 10.5006 107.497 13.0811C107.497 16.0808 104.917 18.0014 101.496 18.0014Z" fill="#0F3460"/>
<path d="M101.556 43.0836C99.3359 43.0836 97.5956 41.2834 97.5956 39.1228C97.5956 36.9028 99.3359 35.1026 101.556 35.1026C103.776 35.1026 105.516 36.9028 105.516 39.1228C105.516 41.2834 103.776 43.0836 101.556 43.0836Z" fill="#265897"/>
</svg>
