<svg xmlns:dc="http://purl.org/dc/elements/1.1/" xmlns:cc="http://creativecommons.org/ns#" xmlns:rdf="http://www.w3.org/1999/02/22-rdf-syntax-ns#" xmlns:svg="http://www.w3.org/2000/svg" xmlns="http://www.w3.org/2000/svg" xmlns:xlink="http://www.w3.org/1999/xlink" id="svg40867" viewBox="0 0 1024 768" height="768px" width="1024px" version="1.1">
  <metadata id="metadata40873">
    <rdf:rdf>
      <cc:work rdf:about="">
        <dc:format>image/svg+xml</dc:format>
        <dc:type rdf:resource="http://purl.org/dc/dcmitype/StillImage"></dc:type>
      </cc:work>
    </rdf:rdf>
  </metadata>
  <defs id="defs40871"></defs>
  <lineargradient spreadMethod="pad" y2="30%" x2="-10%" y1="120%" x1="30%" id="3d_gradient2-logo-5c22f85f-5f71-4606-9132-4664ff094cb7">
    <stop id="stop40848" stop-opacity="1" stop-color="#ffffff" offset="0%"></stop>
    <stop id="stop40850" stop-opacity="1" stop-color="#000000" offset="100%"></stop>
  </lineargradient>
  <lineargradient gradientTransform="rotate(-30)" spreadMethod="pad" y2="30%" x2="-10%" y1="120%" x1="30%" id="3d_gradient3-logo-5c22f85f-5f71-4606-9132-4664ff094cb7">
    <stop id="stop40853" stop-opacity="1" stop-color="#ffffff" offset="0%"></stop>
    <stop id="stop40855" stop-opacity="1" stop-color="#cccccc" offset="50%"></stop>
    <stop id="stop40857" stop-opacity="1" stop-color="#000000" offset="100%"></stop>
  </lineargradient>
  <g id="logo-group">
    <image xlink:href="" id="container" x="272" y="144" width="480" height="480" transform="translate(0 0)" style="display: none;"></image>
    <g id="logo-center" transform="translate(5.684341886080802e-14 0)">
      <image xlink:href="" id="icon_container" x="0" y="0" style="display: none;"></image>
      <g id="slogan" style="font-style:normal;font-weight:700;font-size:32px;line-height:1;font-family:&#39;Maven Pro&#39;;font-variant-ligatures:none;text-align:center;text-anchor:middle" transform="translate(0 0)">
        <path id="path40875" style="font-style:normal;font-weight:700;font-size:32px;line-height:1;font-family:&#39;Maven Pro&#39;;font-variant-ligatures:none;text-align:center;text-anchor:middle" d="m 341.412,0.48 q -1.536,0 -2.688,-0.32 -1.152,-0.288 -2.56,-0.864 v -4.192 q 2.592,1.952 5.44,1.952 1.088,0 1.568,-0.352 0.512,-0.384 0.512,-1.024 0,-0.736 -0.8,-1.088 -0.8,-0.352 -2.56,-0.768 -1.856,-0.384 -3.072,-1.536 -1.184,-1.152 -1.184,-3.36 0,-1.888 0.96,-3.104 0.96,-1.216 2.4,-1.76 1.472,-0.576 3.04,-0.576 1.92,0 3.104,0.352 1.216,0.32 2.368,1.024 v 3.744 q -1.632,-0.896 -2.528,-1.28 -0.896,-0.384 -2.08,-0.384 -1.184,0 -1.76,0.384 -0.576,0.352 -0.576,1.024 0,0.8 0.64,1.184 0.64,0.352 2.048,0.736 1.6,0.416 2.528,0.832 0.928,0.384 1.664,1.376 0.736,0.96 0.736,2.72 -0.064,2.752 -2.08,4.032 -2.016,1.248 -5.12,1.248 z" stroke-width="0" stroke-linejoin="miter" stroke-miterlimit="2" fill="#4b516a" stroke="#4b516a" transform="translate(-2.8421709430404007e-13 403.40816) translate(360.30954500000007 58.64768) scale(0.86) translate(-336.068 16.512)"></path>
        <path id="path40877" style="font-style:normal;font-weight:700;font-size:32px;line-height:1;font-family:&#39;Maven Pro&#39;;font-variant-ligatures:none;text-align:center;text-anchor:middle" d="m 359.1215,-16.672 q 2.656,0 4.832,1.248 2.176,1.216 2.176,4.416 l -0.032,7.648 q -0.032,2.016 -2.016,2.944 -1.984,0.896 -5.792,0.896 -7.104,0 -7.104,-5.536 0,-2.336 1.44,-3.648 1.472,-1.312 4.352,-1.312 1.184,0 2.368,0.32 1.184,0.288 2.048,0.768 v -1.024 q 0,-2.784 -3.584,-2.784 -1.376,0 -2.848,0.512 -1.44,0.48 -2.304,1.184 v -4.224 q 0.864,-0.576 2.624,-0.992 1.792,-0.416 3.84,-0.416 z m -0.672,13.792 q 1.664,0 2.304,-0.224 0.64,-0.224 0.64,-0.896 v -2.496 q -1.12,-0.384 -2.464,-0.384 -1.568,0 -2.304,0.48 -0.704,0.448 -0.704,1.44 0,0.928 0.736,1.504 0.768,0.576 1.792,0.576 z" stroke-width="0" stroke-linejoin="miter" stroke-miterlimit="2" fill="#4b516a" stroke="#4b516a" transform="translate(-2.8421709430404007e-13 403.40816) translate(373.3105950000001 58.51008) scale(0.86) translate(-351.1855 16.672)"></path>
        <path id="path40879" style="font-style:normal;font-weight:700;font-size:32px;line-height:1;font-family:&#39;Maven Pro&#39;;font-variant-ligatures:none;text-align:center;text-anchor:middle" d="m 388.794,-16.64 q 3.392,0 5.024,1.344 1.632,1.312 1.632,4.416 V 0 h -4.768 v -9.92 q 0,-2.784 -3.136,-2.784 -1.312,0 -2.208,0.608 0.064,0.768 0.064,1.216 V 0 h -4.768 v -9.92 q 0,-2.784 -3.136,-2.784 -1.28,0 -2.368,0.544 V 0 h -4.768 v -14.816 q 1.248,-0.672 3.808,-1.248 2.56,-0.576 4.576,-0.576 3.232,0 4.768,1.152 1.248,-0.544 2.624,-0.832 1.408,-0.32 2.656,-0.32 z" stroke-width="0" stroke-linejoin="miter" stroke-miterlimit="2" fill="#4b516a" stroke="#4b516a" transform="translate(-2.8421709430404007e-13 403.40816) translate(389.8023850000001 58.5376) scale(0.86) translate(-370.362 16.64)"></path>
        <path id="path40881" style="font-style:normal;font-weight:700;font-size:32px;line-height:1;font-family:&#39;Maven Pro&#39;;font-variant-ligatures:none;text-align:center;text-anchor:middle" d="m 404.4745,0.48 q -1.536,0 -2.688,-0.32 -1.152,-0.288 -2.56,-0.864 v -4.192 q 2.592,1.952 5.44,1.952 1.088,0 1.568,-0.352 0.512,-0.384 0.512,-1.024 0,-0.736 -0.8,-1.088 -0.8,-0.352 -2.56,-0.768 -1.856,-0.384 -3.072,-1.536 -1.184,-1.152 -1.184,-3.36 0,-1.888 0.96,-3.104 0.96,-1.216 2.4,-1.76 1.472,-0.576 3.04,-0.576 1.92,0 3.104,0.352 1.216,0.32 2.368,1.024 v 3.744 q -1.632,-0.896 -2.528,-1.28 -0.896,-0.384 -2.08,-0.384 -1.184,0 -1.76,0.384 -0.576,0.352 -0.576,1.024 0,0.8 0.64,1.184 0.64,0.352 2.048,0.736 1.6,0.416 2.528,0.832 0.928,0.384 1.664,1.376 0.736,0.96 0.736,2.72 -0.064,2.752 -2.08,4.032 -2.016,1.248 -5.12,1.248 z" stroke-width="0" stroke-linejoin="miter" stroke-miterlimit="2" fill="#4b516a" stroke="#4b516a" transform="translate(-2.8421709430404007e-13 403.40816) translate(414.543295 58.64768) scale(0.86) translate(-399.1305 16.512)"></path>
        <path id="path40883" style="font-style:normal;font-weight:700;font-size:32px;line-height:1;font-family:&#39;Maven Pro&#39;;font-variant-ligatures:none;text-align:center;text-anchor:middle" d="m 422.728,0.48 q -3.552,0 -5.6,-1.664 -2.016,-1.664 -2.016,-4.992 v -10.016 h 4.768 v 9.632 q 0,1.536 0.672,2.304 0.704,0.736 2.208,0.736 1.504,0 2.176,-0.736 0.704,-0.768 0.704,-2.304 v -9.632 h 4.48 v 10.016 q 0,3.36 -1.952,5.024 -1.92,1.632 -5.44,1.632 z" stroke-width="0" stroke-linejoin="miter" stroke-miterlimit="2" fill="#4b516a" stroke="#4b516a" transform="translate(-2.8421709430404007e-13 403.40816) translate(428.2873850000001 58.92288) scale(0.86) translate(-415.112 16.192)"></path>
        <path id="path40885" style="font-style:normal;font-weight:700;font-size:32px;line-height:1;font-family:&#39;Maven Pro&#39;;font-variant-ligatures:none;text-align:center;text-anchor:middle" d="m 434.362,-14.816 q 1.248,-0.672 3.808,-1.248 2.56,-0.576 4.576,-0.576 3.424,0 5.152,1.344 1.728,1.344 1.728,4.416 V 0 h -4.768 v -9.92 q 0,-2.784 -3.136,-2.784 -0.704,0 -1.44,0.16 -0.736,0.16 -1.152,0.384 V 0 h -4.768 z" stroke-width="0" stroke-linejoin="miter" stroke-miterlimit="2" fill="#4b516a" stroke="#4b516a" transform="translate(-2.8421709430404007e-13 403.40816) translate(444.8423850000001 58.5376) scale(0.86) translate(-434.362 16.64)"></path>
        <path id="path40887" style="font-style:normal;font-weight:700;font-size:32px;line-height:1;font-family:&#39;Maven Pro&#39;;font-variant-ligatures:none;text-align:center;text-anchor:middle" d="m 462.022,-16.64 q 3.136,0 4.96,1.152 1.856,1.12 1.856,3.2 v 12.48 q 0,3.36 -2.144,5.152 -2.144,1.792 -6.112,1.792 -2.048,0 -3.584,-0.288 -1.536,-0.288 -2.4,-0.768 V 1.888 q 0.928,0.448 2.592,0.864 1.664,0.416 3.2,0.416 2.08,0 2.912,-0.832 0.864,-0.832 0.864,-2.336 v -0.928 q -1.632,1.408 -4.096,1.408 -3.392,-0.16 -5.248,-2.144 -1.856,-2.016 -1.856,-5.92 0,-5.056 2.304,-7.04 2.336,-2.016 6.752,-2.016 z m -4.32,8.768 q 0,2.208 0.96,3.52 0.992,1.28 2.624,1.28 1.6,0 2.88,-0.736 v -7.424 q 0,-1.632 -2.56,-1.632 -3.904,0 -3.904,4.992 z" stroke-width="0" stroke-linejoin="miter" stroke-miterlimit="2" fill="#4b516a" stroke="#4b516a" transform="translate(-2.8421709430404007e-13 403.40816) translate(460.8418250000001 58.5376) scale(0.86) translate(-452.966 16.64)"></path>
        <path id="path40889" style="font-style:normal;font-weight:700;font-size:32px;line-height:1;font-family:&#39;Maven Pro&#39;;font-variant-ligatures:none;text-align:center;text-anchor:middle" d="m 496.9385,-22.848 v 18.624 q 0,1.504 -1.056,2.56 -1.056,1.056 -2.784,1.6 -1.728,0.544 -3.68,0.544 -4.128,0 -6.4,-1.952 -2.24,-1.952 -2.24,-6.752 0,-4.032 1.952,-6.24 1.984,-2.24 5.792,-2.24 2.272,0 3.68,0.832 v -6.976 z m -4.736,10.656 q -1.28,-0.672 -2.496,-0.672 -2.144,0 -3.136,1.088 -0.992,1.088 -0.992,3.68 0,2.24 0.928,3.424 0.928,1.152 3.104,1.152 1.184,0 1.888,-0.32 0.704,-0.32 0.704,-0.896 z" stroke-width="0" stroke-linejoin="miter" stroke-miterlimit="2" fill="#4b516a" stroke="#4b516a" transform="translate(-2.8421709430404007e-13 403.40816) translate(484.7605750000001 53.19872) scale(0.86) translate(-480.7785 22.848)"></path>
        <path id="path40891" style="font-style:normal;font-weight:700;font-size:32px;line-height:1;font-family:&#39;Maven Pro&#39;;font-variant-ligatures:none;text-align:center;text-anchor:middle" d="m 508.3425,-16.736 q 7.584,0 7.488,9.888 h -10.688 q 0.608,3.36 4.512,3.36 1.184,0 2.304,-0.32 1.152,-0.352 2.432,-0.896 v 4.096 q -2.624,1.088 -5.888,1.088 -2.464,0 -4.32,-0.992 -1.856,-1.024 -2.88,-2.912 -1.024,-1.888 -1.024,-4.448 0,-4.224 2.08,-6.528 2.112,-2.336 5.984,-2.336 z m -0.192,3.648 q -2.56,0 -3.04,3.2 h 5.984 q -0.224,-1.728 -0.928,-2.464 -0.672,-0.736 -2.016,-0.736 z" stroke-width="0" stroke-linejoin="miter" stroke-miterlimit="2" fill="#4b516a" stroke="#4b516a" transform="translate(-2.8421709430404007e-13 403.40816) translate(501.53057500000006 58.45504) scale(0.86) translate(-500.2785 16.736)"></path>
        <path id="path40893" style="font-style:normal;font-weight:700;font-size:32px;line-height:1;font-family:&#39;Maven Pro&#39;;font-variant-ligatures:none;text-align:center;text-anchor:middle" d="m 528.5505,-16.64 q 2.816,0 4.384,1.408 1.568,1.408 1.568,4.608 V 0 h -4.768 v -9.632 q 0,-3.072 -3.072,-3.072 -0.736,0 -1.504,0.224 -0.768,0.224 -1.184,0.544 L 523.9105,0 h -4.736 v -22.592 h 4.8 v 7.136 q 2.208,-1.184 4.576,-1.184 z" stroke-width="0" stroke-linejoin="miter" stroke-miterlimit="2" fill="#4b516a" stroke="#4b516a" transform="translate(-2.8421709430404007e-13 403.40816) translate(517.7811350000001 53.41888) scale(0.86) translate(-519.1745 22.592)"></path>
        <path id="path40895" style="font-style:normal;font-weight:700;font-size:32px;line-height:1;font-family:&#39;Maven Pro&#39;;font-variant-ligatures:none;text-align:center;text-anchor:middle" d="m 546.481,-16.64 q 7.264,0 7.264,4.512 V 6.24 h -4.672 v -6.72 q -1.472,0.96 -3.84,0.96 -3.552,0 -5.472,-2.144 -1.92,-2.144 -1.92,-6.112 0,-4.768 2.272,-6.816 2.272,-2.048 6.368,-2.048 z m -3.904,8.576 q 0,2.432 1.024,3.584 1.056,1.12 2.816,1.12 1.536,0 2.656,-0.672 V -11.2 q 0,-0.704 -0.768,-1.088 -0.768,-0.384 -1.888,-0.384 -2.016,0 -2.944,1.216 -0.896,1.184 -0.896,3.392 z" stroke-width="0" stroke-linejoin="miter" stroke-miterlimit="2" fill="#4b516a" stroke="#4b516a" transform="translate(-2.8421709430404007e-13 403.40816) translate(533.8343250000001 58.5376) scale(0.86) translate(-537.841 16.64)"></path>
        <path id="path40897" style="font-style:normal;font-weight:700;font-size:32px;line-height:1;font-family:&#39;Maven Pro&#39;;font-variant-ligatures:none;text-align:center;text-anchor:middle" d="m 565.283,0.48 q -4.096,0 -6.144,-2.176 -2.048,-2.176 -2.048,-6.464 0,-4.48 2.016,-6.528 2.048,-2.048 6.176,-2.048 4.128,0 6.208,2.112 2.08,2.08 2.08,6.464 0,4.224 -2.144,6.432 -2.144,2.208 -6.144,2.208 z m 0,-3.808 q 1.76,0 2.656,-1.216 0.896,-1.248 0.896,-3.616 0,-2.592 -0.896,-3.68 -0.864,-1.12 -2.656,-1.12 -1.856,0 -2.688,1.12 -0.8,1.088 -0.8,3.68 0,2.464 0.832,3.648 0.864,1.184 2.656,1.184 z" stroke-width="0" stroke-linejoin="miter" stroke-miterlimit="2" fill="#4b516a" stroke="#4b516a" transform="translate(-2.8421709430404007e-13 403.40816) translate(550.3893250000002 58.45504) scale(0.86) translate(-557.091 16.736)"></path>
        <path id="path40899" style="font-style:normal;font-weight:700;font-size:32px;line-height:1;font-family:&#39;Maven Pro&#39;;font-variant-ligatures:none;text-align:center;text-anchor:middle" d="m 576.862,-14.816 q 1.248,-0.672 3.808,-1.248 2.56,-0.576 4.576,-0.576 3.424,0 5.152,1.344 1.728,1.344 1.728,4.416 V 0 h -4.768 v -9.92 q 0,-2.784 -3.136,-2.784 -0.704,0 -1.44,0.16 -0.736,0.16 -1.152,0.384 V 0 h -4.768 z" stroke-width="0" stroke-linejoin="miter" stroke-miterlimit="2" fill="#4b516a" stroke="#4b516a" transform="translate(-2.8421709430404007e-13 403.40816) translate(567.3923850000002 58.5376) scale(0.86) translate(-576.862 16.64)"></path>
        <path id="path40901" style="font-style:normal;font-weight:700;font-size:32px;line-height:1;font-family:&#39;Maven Pro&#39;;font-variant-ligatures:none;text-align:center;text-anchor:middle" d="m 613.7825,-16.64 q 3.552,0 5.44,2.176 1.888,2.176 1.888,6.304 -0.032,8.64 -8.512,8.64 -7.424,0 -7.424,-4.224 v -18.432 h 4.672 v 6.56 q 0.864,-0.512 1.952,-0.768 1.12,-0.256 1.984,-0.256 z m -1.248,13.152 q 3.808,0 3.808,-4.384 0,-4.96 -3.712,-4.96 -0.672,0 -1.44,0.192 -0.768,0.16 -1.344,0.48 v 7.168 q 0,1.504 2.688,1.504 z" stroke-width="0" stroke-linejoin="miter" stroke-miterlimit="2" fill="#4b516a" stroke="#4b516a" transform="translate(-2.8421709430404007e-13 403.40816) translate(591.7411350000002 53.77664) scale(0.86) translate(-605.1745 22.176)"></path>
        <path id="path40903" style="font-style:normal;font-weight:700;font-size:32px;line-height:1;font-family:&#39;Maven Pro&#39;;font-variant-ligatures:none;text-align:center;text-anchor:middle" d="m 631.7205,0.48 q -4.096,0 -6.144,-2.176 -2.048,-2.176 -2.048,-6.464 0,-4.48 2.016,-6.528 2.048,-2.048 6.176,-2.048 4.128,0 6.208,2.112 2.08,2.08 2.08,6.464 0,4.224 -2.144,6.432 -2.144,2.208 -6.144,2.208 z m 0,-3.808 q 1.76,0 2.656,-1.216 0.896,-1.248 0.896,-3.616 0,-2.592 -0.896,-3.68 -0.864,-1.12 -2.656,-1.12 -1.856,0 -2.688,1.12 -0.8,1.088 -0.8,3.68 0,2.464 0.832,3.648 0.864,1.184 2.656,1.184 z" stroke-width="0" stroke-linejoin="miter" stroke-miterlimit="2" fill="#4b516a" stroke="#4b516a" transform="translate(-2.8421709430404007e-13 403.40816) translate(607.5255750000002 58.45504) scale(0.86) translate(-623.5285 16.736)"></path>
        <path id="path40905" style="font-style:normal;font-weight:700;font-size:32px;line-height:1;font-family:&#39;Maven Pro&#39;;font-variant-ligatures:none;text-align:center;text-anchor:middle" d="m 655.4915,-12.48 -7.072,8.672 h 7.072 V 0 h -12.864 v -3.776 l 7.84,-8.832 h -7.648 v -3.584 h 12.672 z" stroke-width="0" stroke-linejoin="miter" stroke-miterlimit="2" fill="#4b516a" stroke="#4b516a" transform="translate(-2.8421709430404007e-13 403.40816) translate(623.9507150000003 58.92288) scale(0.86) translate(-642.6275 16.192)"></path>
        <path id="path40907" style="font-style:normal;font-weight:700;font-size:32px;line-height:1;font-family:&#39;Maven Pro&#39;;font-variant-ligatures:none;text-align:center;text-anchor:middle" d="m 666.3455,0.48 q -4.096,0 -6.144,-2.176 -2.048,-2.176 -2.048,-6.464 0,-4.48 2.016,-6.528 2.048,-2.048 6.176,-2.048 4.128,0 6.208,2.112 2.08,2.08 2.08,6.464 0,4.224 -2.144,6.432 -2.144,2.208 -6.144,2.208 z m 0,-3.808 q 1.76,0 2.656,-1.216 0.896,-1.248 0.896,-3.616 0,-2.592 -0.896,-3.68 -0.864,-1.12 -2.656,-1.12 -1.856,0 -2.688,1.12 -0.8,1.088 -0.8,3.68 0,2.464 0.832,3.648 0.864,1.184 2.656,1.184 z" stroke-width="0" stroke-linejoin="miter" stroke-miterlimit="2" fill="#4b516a" stroke="#4b516a" transform="translate(-2.8421709430404007e-13 403.40816) translate(637.3030750000003 58.45504) scale(0.86) translate(-658.1535 16.736)"></path>
        <path id="path40909" style="font-style:normal;font-weight:700;font-size:32px;line-height:1;font-family:&#39;Maven Pro&#39;;font-variant-ligatures:none;text-align:center;text-anchor:middle" d="m 677.9245,-14.496 q 0.48,-0.416 1.664,-0.928 1.216,-0.512 2.688,-0.864 1.504,-0.384 2.88,-0.384 2.656,0 3.68,0.8 v 3.488 q -1.28,-0.288 -3.68,-0.288 -1.504,0 -2.464,0.16 V 0 h -4.768 z" stroke-width="0" stroke-linejoin="miter" stroke-miterlimit="2" fill="#4b516a" stroke="#4b516a" transform="translate(-2.8421709430404007e-13 403.40816) translate(654.3061350000003 58.51008) scale(0.86) translate(-677.9245 16.672)"></path>
      </g>
      <g id="title" style="font-style:normal;font-weight:normal;font-size:72px;line-height:1;font-family:&#39;Brandmark Sans 28&#39;;font-variant-ligatures:normal;text-align:center;text-anchor:middle" transform="translate(0 0)">
        <g id="path40912" aria-label="S" transform="translate(0 336.40688) translate(282.353195 -50.79999999999999) scale(3) translate(-435.04325 50.4)"> <polygon class="c1" points="122.81104,105.27606 108.21094,92.00378 91.78931,92.00391 91.78931,87.38348 120.81104,87.38361 120.81104,74.11133 91.78931,74.11121 91.78931,74.11035 81.30688,83.63995 77.18896,87.38342 77.18896,87.38361 77.18896,92.00378 77.18896,92.00397 91.78931,105.27625 108.21069,105.27612 108.21069,111.25647 79.18896,111.25635 79.18896,124.52863 108.21069,124.52881 108.21069,124.52966 118.69312,115 122.81104,111.25653 122.81104,111.25635 122.81104,105.27625 122.80835,105.27606 " transform="translate(357.85441 -124.51035)" stroke-width="0" stroke-linejoin="miter" stroke-miterlimit="2" fill="#2c07b1" stroke="#2c07b1"></polygon> <lineargradient id="0884fcdd-9ea7-41cd-8e96-73ad7af1a305" gradientUnits="userSpaceOnUse" x1="79.18899" y1="117.89261" x2="105.5673" y2="117.89261"> <stop offset="0" style="stop-color:#FFFFFF;stop-opacity:0.5"></stop> <stop offset="0.01383" style="stop-color:#FFFFFF;stop-opacity:0.49309"></stop> <stop offset="1" style="stop-color:#FFFFFF;stop-opacity:0"></stop> </lineargradient> <polygon class="highlight" fill="url(#0884fcdd-9ea7-41cd-8e96-73ad7af1a305)" points="108.21104,124.52884 122.81116,111.25656 79.18899,111.25639 79.18899,124.52866 " transform="translate(357.85441 -124.51035)" stroke-width="0" stroke-linejoin="miter" stroke-miterlimit="2" opacity="1"></polygon> <lineargradient id="6cd90def-1d5b-4227-aa8c-71a0f9a485b9" gradientUnits="userSpaceOnUse" x1="194.231" y1="104.61896" x2="220.60931" y2="104.61896" gradientTransform="matrix(-1 0 0 -1 315.04202 185.36638)"> <stop offset="0" style="stop-color:#FFFFFF;stop-opacity:0"></stop> <stop offset="0.98617" style="stop-color:#FFFFFF;stop-opacity:0.49309"></stop> <stop offset="1" style="stop-color:#FFFFFF;stop-opacity:0.5"></stop> </lineargradient> <polygon class="highlight" fill="url(#6cd90def-1d5b-4227-aa8c-71a0f9a485b9)" points="91.78896,74.11119 77.18884,87.38347 120.81101,87.38364 120.811,74.11136 " transform="translate(357.85441 -124.51035)" stroke-width="0" stroke-linejoin="miter" stroke-miterlimit="2" opacity="1"></polygon> <lineargradient id="174c9bff-8f0a-462a-8543-c07761da6c7c" gradientUnits="userSpaceOnUse" x1="115.5109" y1="101.93358" x2="115.5109" y2="115.66119"> <stop offset="0" style="stop-color:#000000;stop-opacity:0.4"></stop> <stop offset="0.27595" style="stop-color:#0F0D0D;stop-opacity:0.28962"></stop> <stop offset="0.67484" style="stop-color:#1E1A1B;stop-opacity:0.13006"></stop> <stop offset="1" style="stop-color:#231F20;stop-opacity:0"></stop> </lineargradient> <polygon class="highlight" fill="url(#174c9bff-8f0a-462a-8543-c07761da6c7c)" points="122.81116,111.25639 108.21066,124.52969 108.21066,105.27625 122.81116,105.27625 " transform="translate(357.85441 -124.51035)" stroke-width="0" stroke-linejoin="miter" stroke-miterlimit="2" opacity="1"></polygon> <lineargradient id="9f53cba6-39b8-4f5f-96ed-c951bd58bb74" gradientUnits="userSpaceOnUse" x1="84.96902" y1="79.05431" x2="84.45682" y2="97.49329"> <stop offset="0" style="stop-color:#000000;stop-opacity:0.4"></stop> <stop offset="0.27595" style="stop-color:#0F0D0D;stop-opacity:0.28962"></stop> <stop offset="0.67484" style="stop-color:#1E1A1B;stop-opacity:0.13006"></stop> <stop offset="1" style="stop-color:#231F20;stop-opacity:0"></stop> </lineargradient> <polygon class="highlight" fill="url(#9f53cba6-39b8-4f5f-96ed-c951bd58bb74)" points="77.18896,87.38361 77.18896,92.00378 91.78931,105.27625 91.78931,87.38361 " transform="translate(357.85441 -124.51035)" stroke-width="0" stroke-linejoin="miter" stroke-miterlimit="2" opacity="1"></polygon> <lineargradient id="f40a7961-8f5a-42f8-bed4-4fb08f69f46f" gradientUnits="userSpaceOnUse" x1="86.25433" y1="86.72636" x2="113.84203" y2="86.72636" gradientTransform="matrix(1 0 0 -1 -0.00018 185.36638)"> <stop offset="0" style="stop-color:#000000;stop-opacity:0.4"></stop> <stop offset="0.27595" style="stop-color:#0F0D0D;stop-opacity:0.28962"></stop> <stop offset="0.67484" style="stop-color:#1E1A1B;stop-opacity:0.13006"></stop> <stop offset="1" style="stop-color:#231F20;stop-opacity:0"></stop> </lineargradient> <polygon class="highlight" fill="url(#f40a7961-8f5a-42f8-bed4-4fb08f69f46f)" points="108.21094,92.00378 91.78931,92.00391 91.78931,105.27625 122.81104,105.27606 " transform="translate(357.85441 -124.51035)" stroke-width="0" stroke-linejoin="miter" stroke-miterlimit="2" opacity="1"></polygon> <lineargradient id="3b27af16-0c60-4104-bf32-99bbf3c9958b" gradientUnits="userSpaceOnUse" x1="86.25433" y1="86.72636" x2="113.84203" y2="86.72636" gradientTransform="matrix(1 0 0 -1 -0.00018 185.36638)"> <stop offset="0" style="stop-color:#FFFFFF;stop-opacity:0"></stop> <stop offset="0.98617" style="stop-color:#FFFFFF;stop-opacity:0.49309"></stop> <stop offset="1" style="stop-color:#FFFFFF;stop-opacity:0.5"></stop> </lineargradient> <polygon class="highlight" fill="url(#3b27af16-0c60-4104-bf32-99bbf3c9958b)" points="108.21094,92.00378 91.78931,92.00391 91.78931,105.27625 122.81104,105.27606 " transform="translate(357.85441 -124.51035)" stroke-width="0" stroke-linejoin="miter" stroke-miterlimit="2" opacity="1"></polygon> <lineargradient id="7b959961-0c56-4c8a-b2e5-914d048ddf9d" gradientUnits="userSpaceOnUse" x1="119.57272" y1="117.89258" x2="89.39713" y2="117.89258"> <stop offset="0" style="stop-color:#000000;stop-opacity:0.4"></stop> <stop offset="0.27595" style="stop-color:#0F0D0D;stop-opacity:0.28962"></stop> <stop offset="0.67484" style="stop-color:#1E1A1B;stop-opacity:0.13006"></stop> <stop offset="1" style="stop-color:#231F20;stop-opacity:0"></stop> </lineargradient> <rect x="79.18896" y="111.25641" class="highlight" fill="url(#7b959961-0c56-4c8a-b2e5-914d048ddf9d)" width="29.02173" height="13.27231" transform="translate(357.85441 -124.51035)" stroke-width="0" stroke-linejoin="miter" stroke-miterlimit="2" opacity="1"></rect> </g>
        <g id="path40914" aria-label="D" transform="translate(0 336.40688) translate(436.05744500000003 -50.79999999999999) scale(3) translate(-486.278 50.4)"> <path class="c1" d="M99.2851,74.09357v0.00183l-0.00018-0.00244l-9.27466,0.00018l-0.00067,0.00891v-0.00873L75.40912,87.3656 v37.16412h14.60046v-0.01465l9.27551-0.00018v0.00073c13.95361,0,25.30579-11.16272,25.30579-25.11627 C124.59088,85.44574,113.23871,74.09357,99.2851,74.09357z M99.2851,111.24316l-0.00006-0.00055l-9.27545,0.00018V87.36542 l9.27551-0.00018v0.00073c6.63525,0,12.03339,5.39813,12.03339,12.03339S105.92035,111.24316,99.2851,111.24316z" transform="translate(410.8689 -124.49296)" stroke-width="0" stroke-linejoin="miter" stroke-miterlimit="2" fill="#2c07b1" stroke="#2c07b1"></path> <lineargradient id="7b026914-3b22-4fda-8981-67196dfaebc0" gradientUnits="userSpaceOnUse" x1="90.00952" y1="99.30429" x2="124.59088" y2="99.30429"> <stop offset="0" style="stop-color:#000000;stop-opacity:0.4"></stop> <stop offset="0.27595" style="stop-color:#0F0D0D;stop-opacity:0.28962"></stop> <stop offset="0.67484" style="stop-color:#1E1A1B;stop-opacity:0.13006"></stop> <stop offset="1" style="stop-color:#231F20;stop-opacity:0"></stop> </lineargradient> <path class="highlight" fill="url(#7b026914-3b22-4fda-8981-67196dfaebc0)" d="M99.2851,74.09357v0.00183l-0.00018-0.00244l-9.27466,0.00018l0.00012,13.27228l9.27472-0.00018 v0.00073c6.63525,0,12.03339,5.39813,12.03339,12.03339s-5.39813,11.84381-12.03339,11.84381l-0.00006-0.00055l-9.27551,0.00018 l0.00006,13.27228l9.27551-0.00018v0.00073c13.95361,0,25.30579-11.16272,25.30579-25.11627 C124.59088,85.44574,113.23871,74.09357,99.2851,74.09357z" transform="translate(410.8689 -124.49296)" stroke-width="0" stroke-linejoin="miter" stroke-miterlimit="2" opacity="1"></path> <lineargradient id="05e49700-2174-4fc0-8253-e4b55470ec0e" gradientUnits="userSpaceOnUse" x1="82.70934" y1="124.52972" x2="82.70934" y2="74.09335"> <stop offset="0" style="stop-color:#000000;stop-opacity:0.3"></stop> <stop offset="0.21414" style="stop-color:#0F0D0D;stop-opacity:0.21727"></stop> <stop offset="0.52404" style="stop-color:#1E1A1B;stop-opacity:0.09755"></stop> <stop offset="0.77654" style="stop-color:#231F20;stop-opacity:0"></stop> </lineargradient> <polygon class="highlight" fill="url(#05e49700-2174-4fc0-8253-e4b55470ec0e)" points="75.4091,124.52972 90.00959,124.52972 90.00959,74.09335 75.4091,87.36559 " transform="translate(410.8689 -124.49296)" stroke-width="0" stroke-linejoin="miter" stroke-miterlimit="2" opacity="1"></polygon> <lineargradient id="c98500a9-b18b-482d-b519-0c6a587c534a" gradientUnits="userSpaceOnUse" x1="82.70934" y1="124.52972" x2="82.70934" y2="74.09335"> <stop offset="0.18736" style="stop-color:#FFFFFF;stop-opacity:0"></stop> <stop offset="0.98876" style="stop-color:#FFFFFF;stop-opacity:0.49309"></stop> <stop offset="1" style="stop-color:#FFFFFF;stop-opacity:0.5"></stop> </lineargradient> <polygon class="highlight" fill="url(#c98500a9-b18b-482d-b519-0c6a587c534a)" points="75.4091,124.52972 90.00959,124.52972 90.00959,74.09335 75.4091,87.36559 " transform="translate(410.8689 -124.49296)" stroke-width="0" stroke-linejoin="miter" stroke-miterlimit="2" opacity="1"></polygon> </g>
        <g id="path40916" aria-label="B" transform="translate(0 336.40688) translate(601.0308349999999 -50.79999999999999) scale(3) translate(-541.26913 50.4)"> <path class="c1" d="M116.93152,96.00745c2.2207-2.32776,3.59235-5.4729,3.59235-8.94403 c0-7.16315-5.80688-12.97003-12.97003-12.97003h-7.14758l-23.87402,0.00012v11.28143l23.87402-0.00012h1.82538 c2.10773,0,3.81628,1.70862,3.81628,3.81628c0,2.10718-1.70795,3.81543-3.81494,3.81616l-1.82672-0.00006v0.00006 l-23.87408,0.00018l0.00012,11.28143l23.87463-0.00018v-0.00006h2.82019c2.47418,0,4.47986,2.00568,4.47986,4.47986 s-2.00568,4.47992-4.47986,4.47992l-2.82086-0.00018v0.00012l-23.87439,0.00012l0.00006,11.28143l23.87506-0.00012v-0.00012 h7.29999c8.70465,0,15.76117-7.05652,15.76117-15.76117C123.46814,103.51294,120.8858,98.87103,116.93152,96.00745z" transform="translate(464.73727 -124.49339)" stroke-width="0" stroke-linejoin="miter" stroke-miterlimit="2" fill="#2c07b1" stroke="#2c07b1"></path> <lineargradient id="594133f1-dc8e-4055-b367-a257b671e501" gradientUnits="userSpaceOnUse" x1="98.52805" y1="97.02248" x2="98.52805" y2="84.07533"> <stop offset="0" style="stop-color:#000000;stop-opacity:0.9"></stop> <stop offset="0.27595" style="stop-color:#0F0D0D;stop-opacity:0.65165"></stop> <stop offset="0.67484" style="stop-color:#1E1A1B;stop-opacity:0.29264"></stop> <stop offset="1" style="stop-color:#231F20;stop-opacity:0"></stop> </lineargradient> <path class="highlight" fill="url(#594133f1-dc8e-4055-b367-a257b671e501)" d="M116.93152,96.00745c2.2207-2.32776,3.59235-5.4729,3.59235-8.94403 c0-7.16315-5.80688-12.97003-12.97003-12.97003h-7.14758l-23.87402,0.00012v11.28143l23.87402-0.00012h1.82538 c2.10773,0,3.81628,1.70862,3.81628,3.81628c0,2.10718-1.70795,3.81543-3.81494,3.81616l5.474,0.00012 C111.15607,93.00739,114.33636,94.12811,116.93152,96.00745z" transform="translate(464.73727 -124.49339)" stroke-width="0" stroke-linejoin="miter" stroke-miterlimit="2" opacity="1"></path> <lineargradient id="351d9a32-a22e-4871-80dc-56d20523e2a2" gradientUnits="userSpaceOnUse" x1="103.65331" y1="89.06102" x2="99.31657" y2="104.40638"> <stop offset="0" style="stop-color:#FFFFFF;stop-opacity:0.9"></stop> <stop offset="1" style="stop-color:#FFFFFF;stop-opacity:0"></stop> </lineargradient> <path class="highlight" fill="url(#351d9a32-a22e-4871-80dc-56d20523e2a2)" d="M107.70697,93.00739l-7.30072-0.00018v0.00006l-23.87408,0.00018l0.00012,11.28143l23.87463-0.00018 v-0.00006h2.82019c2.47418,0,4.47986,2.00568,4.47986,4.47986s-2.00568,4.47992-4.47986,4.47992l-2.82086-0.00018v0.00012 l-23.87439,0.00012l0.00006,11.28143l23.87506-0.00012v-0.00012h7.29999c8.70465,0,15.76117-7.05652,15.76117-15.76117 S116.41162,93.00739,107.70697,93.00739z" transform="translate(464.73727 -124.49339)" stroke-width="0" stroke-linejoin="miter" stroke-miterlimit="2" opacity="1"></path> <lineargradient id="c5fc409b-c8a2-457a-932b-592ac2e619c8" gradientUnits="userSpaceOnUse" x1="85.82545" y1="122.19437" x2="95.53294" y2="109.42136"> <stop offset="0" style="stop-color:#231F20;stop-opacity:0.4"></stop> <stop offset="0.8228" style="stop-color:#231F20;stop-opacity:0"></stop> </lineargradient> <path class="highlight" fill="url(#c5fc409b-c8a2-457a-932b-592ac2e619c8)" d="M107.70697,93.00739l-7.30072-0.00018v0.00006l-23.87408,0.00018l0.00012,11.28143l23.87463-0.00018 v-0.00006h2.82019c2.47418,0,4.47986,2.00568,4.47986,4.47986s-2.00568,4.47992-4.47986,4.47992l-2.82086-0.00018v0.00012 l-23.87439,0.00012l0.00006,11.28143l23.87506-0.00012v-0.00012h7.29999c8.70465,0,15.76117-7.05652,15.76117-15.76117 S116.41162,93.00739,107.70697,93.00739z" transform="translate(464.73727 -124.49339)" stroke-width="0" stroke-linejoin="miter" stroke-miterlimit="2" opacity="1"></path> </g>
         </g>
      <image xlink:href="https://app.brandmark.io/nounpreview/1861325.png" id="icon" x="0" y="0" style="display: none;"></image>
    </g>
  </g>
</svg>