<svg xmlns:dc="http://purl.org/dc/elements/1.1/" xmlns:cc="http://creativecommons.org/ns#" xmlns:rdf="http://www.w3.org/1999/02/22-rdf-syntax-ns#" xmlns:svg="http://www.w3.org/2000/svg" xmlns="http://www.w3.org/2000/svg" xmlns:xlink="http://www.w3.org/1999/xlink" id="svg240258" viewBox="0 0 1024 768" height="768px" width="1024px" version="1.1">
  <metadata id="metadata240264">
    <rdf:rdf>
      <cc:work rdf:about="">
        <dc:format>image/svg+xml</dc:format>
        <dc:type rdf:resource="http://purl.org/dc/dcmitype/StillImage"></dc:type>
      </cc:work>
    </rdf:rdf>
  </metadata>
  <defs id="defs240262"></defs>
  <lineargradient spreadMethod="pad" y2="30%" x2="-10%" y1="120%" x1="30%" id="3d_gradient2-logo-97847088-fd40-47ce-8e7f-b2ebeeac95ed">
    <stop id="stop240239" stop-opacity="1" stop-color="#ffffff" offset="0%"></stop>
    <stop id="stop240241" stop-opacity="1" stop-color="#000000" offset="100%"></stop>
  </lineargradient>
  <lineargradient gradientTransform="rotate(-30)" spreadMethod="pad" y2="30%" x2="-10%" y1="120%" x1="30%" id="3d_gradient3-logo-97847088-fd40-47ce-8e7f-b2ebeeac95ed">
    <stop id="stop240244" stop-opacity="1" stop-color="#ffffff" offset="0%"></stop>
    <stop id="stop240246" stop-opacity="1" stop-color="#cccccc" offset="50%"></stop>
    <stop id="stop240248" stop-opacity="1" stop-color="#000000" offset="100%"></stop>
  </lineargradient>
  <g id="logo-group">
    <image xlink:href="" id="container" x="272" y="144" width="480" height="480" transform="translate(0 0)" style="display: none;"></image>
    <g id="logo-center" transform="translate(0 0)">
      <image xlink:href="" id="icon_container" x="0" y="0" style="display: none;"></image>
      <g id="slogan" style="font-style:normal;font-weight:400;font-size:32px;line-height:1;font-family:&#39;PT Sans Caption&#39;;font-variant-ligatures:none;text-align:center;text-anchor:middle" transform="translate(0 0)">
        <path id="path240266" style="font-style:normal;font-weight:400;font-size:32px;line-height:1;font-family:&#39;PT Sans Caption&#39;;font-variant-ligatures:none;text-align:center;text-anchor:middle" d="m 338.671,-4.704 q 0,-0.64 -0.32,-1.056 -0.288,-0.448 -0.8,-0.736 -0.512,-0.32 -1.184,-0.544 -0.672,-0.224 -1.408,-0.448 -0.928,-0.256 -1.888,-0.544 -0.928,-0.32 -1.696,-0.832 -0.736,-0.544 -1.216,-1.376 -0.48,-0.832 -0.48,-2.112 0,-2.496 1.472,-3.712 1.504,-1.216 4.192,-1.216 2.016,0 3.392,0.384 1.376,0.384 2.4,0.832 l -0.704,2.496 q -0.864,-0.416 -2.08,-0.8 -1.184,-0.416 -2.624,-0.416 -1.568,0 -2.336,0.512 -0.768,0.512 -0.768,1.856 0,0.544 0.288,0.928 0.288,0.352 0.768,0.64 0.48,0.256 1.12,0.48 0.64,0.192 1.344,0.384 0.96,0.256 1.92,0.608 0.96,0.32 1.76,0.896 0.8,0.544 1.28,1.408 0.512,0.864 0.512,2.176 0,2.368 -1.6,3.872 -1.6,1.472 -4.8,1.472 -2.048,0 -3.584,-0.416 -1.504,-0.416 -2.528,-0.96 l 0.832,-2.56 q 0.896,0.48 2.304,0.96 1.408,0.48 2.848,0.48 1.568,0 2.56,-0.544 1.024,-0.576 1.024,-2.112 z" stroke-width="0" stroke-linejoin="miter" stroke-miterlimit="2" fill="#223674" stroke="#223674" transform="translate(1.1368683772161603e-13 408.85168) translate(353.97736499999996 57.5392) scale(0.86) translate(-329.103 17.28)"></path>
        <path id="path240268" style="font-style:normal;font-weight:400;font-size:32px;line-height:1;font-family:&#39;PT Sans Caption&#39;;font-variant-ligatures:none;text-align:center;text-anchor:middle" d="m 345.9365,-15.744 q 2.88,-1.376 7.136,-1.376 1.92,0 3.072,0.512 1.184,0.48 1.824,1.248 0.64,0.768 0.832,1.728 0.224,0.928 0.224,1.856 0,1.76 -0.128,3.552 -0.128,1.76 -0.128,3.84 0,1.216 0.096,2.368 0.128,1.12 0.384,2.08 h -2.144 l -0.8,-2.56 h -0.32 q -0.352,0.48 -0.864,0.992 -0.512,0.48 -1.216,0.864 -0.704,0.384 -1.632,0.64 -0.896,0.256 -2.08,0.256 -1.184,0 -2.176,-0.32 -0.992,-0.352 -1.728,-0.96 -0.704,-0.608 -1.12,-1.472 -0.416,-0.896 -0.416,-1.984 0,-1.44 0.608,-2.496 0.64,-1.056 1.632,-1.728 0.992,-0.672 2.24,-0.992 1.28,-0.32 2.528,-0.32 0.992,0 1.664,0.032 0.704,0.032 1.152,0.096 0.48,0.032 0.8,0.096 0.32,0.032 0.576,0.064 0.064,-0.48 0.096,-0.832 0.032,-0.352 0.032,-0.896 0,-0.896 -0.192,-1.504 -0.192,-0.608 -0.64,-0.96 -0.416,-0.384 -1.152,-0.544 -0.736,-0.16 -1.792,-0.16 -0.608,0 -1.344,0.096 -0.736,0.096 -1.472,0.288 -0.736,0.16 -1.472,0.416 -0.704,0.256 -1.28,0.544 z m 10.016,8.128 q -0.256,-0.032 -0.544,-0.096 -0.288,-0.064 -0.736,-0.096 -0.416,-0.032 -1.024,-0.064 -0.576,-0.032 -1.44,-0.032 -1.984,0 -3.168,0.704 -1.152,0.704 -1.152,2.4 0,1.28 0.896,1.92 0.928,0.64 2.368,0.64 1.056,0 1.856,-0.256 0.832,-0.288 1.408,-0.672 0.608,-0.416 0.96,-0.896 0.384,-0.512 0.576,-0.992 z" stroke-width="0" stroke-linejoin="miter" stroke-miterlimit="2" fill="#223674" stroke="#223674" transform="translate(1.1368683772161603e-13 408.85168) translate(367.4359349999999 57.6768) scale(0.86) translate(-344.7525 17.12)"></path>
        <path id="path240270" style="font-style:normal;font-weight:400;font-size:32px;line-height:1;font-family:&#39;PT Sans Caption&#39;;font-variant-ligatures:none;text-align:center;text-anchor:middle" d="m 375.6335,0 v -9.216 q 0,-1.344 -0.128,-2.368 -0.128,-1.024 -0.512,-1.696 -0.384,-0.704 -1.088,-1.024 -0.672,-0.352 -1.76,-0.352 -1.696,0 -2.848,0.96 -1.12,0.928 -1.6,2.4 V 0 h -2.944 v -16.8 h 2.016 l 0.576,2.24 h 0.32 q 1.024,-1.152 2.336,-1.92 1.344,-0.8 3.392,-0.8 1.728,0 2.88,0.736 1.184,0.736 1.792,2.464 0.96,-1.472 2.432,-2.336 1.472,-0.864 3.296,-0.864 1.536,0 2.592,0.352 1.088,0.352 1.76,1.216 0.672,0.864 0.992,2.336 0.32,1.472 0.32,3.712 V 0 h -2.944 v -9.664 q 0,-1.28 -0.16,-2.208 -0.128,-0.928 -0.512,-1.536 -0.384,-0.64 -1.088,-0.928 -0.672,-0.32 -1.792,-0.32 -1.824,0 -2.88,0.96 -1.056,0.96 -1.504,2.88 V 0 Z" stroke-width="0" stroke-linejoin="miter" stroke-miterlimit="2" fill="#223674" stroke="#223674" transform="translate(1.1368683772161603e-13 408.85168) translate(384.63679499999995 57.5392) scale(0.86) translate(-364.7535 17.28)"></path>
        <path id="path240272" style="font-style:normal;font-weight:400;font-size:32px;line-height:1;font-family:&#39;PT Sans Caption&#39;;font-variant-ligatures:none;text-align:center;text-anchor:middle" d="m 403.546,-4.704 q 0,-0.64 -0.32,-1.056 -0.288,-0.448 -0.8,-0.736 -0.512,-0.32 -1.184,-0.544 -0.672,-0.224 -1.408,-0.448 -0.928,-0.256 -1.888,-0.544 -0.928,-0.32 -1.696,-0.832 -0.736,-0.544 -1.216,-1.376 -0.48,-0.832 -0.48,-2.112 0,-2.496 1.472,-3.712 1.504,-1.216 4.192,-1.216 2.016,0 3.392,0.384 1.376,0.384 2.4,0.832 l -0.704,2.496 q -0.864,-0.416 -2.08,-0.8 -1.184,-0.416 -2.624,-0.416 -1.568,0 -2.336,0.512 -0.768,0.512 -0.768,1.856 0,0.544 0.288,0.928 0.288,0.352 0.768,0.64 0.48,0.256 1.12,0.48 0.64,0.192 1.344,0.384 0.96,0.256 1.92,0.608 0.96,0.32 1.76,0.896 0.8,0.544 1.28,1.408 0.512,0.864 0.512,2.176 0,2.368 -1.6,3.872 -1.6,1.472 -4.8,1.472 -2.048,0 -3.584,-0.416 -1.504,-0.416 -2.528,-0.96 l 0.832,-2.56 q 0.896,0.48 2.304,0.96 1.408,0.48 2.848,0.48 1.568,0 2.56,-0.544 1.024,-0.576 1.024,-2.112 z" stroke-width="0" stroke-linejoin="miter" stroke-miterlimit="2" fill="#223674" stroke="#223674" transform="translate(1.1368683772161603e-13 408.85168) translate(409.7698649999999 57.5392) scale(0.86) translate(-393.978 17.28)"></path>
        <path id="path240274" style="font-style:normal;font-weight:400;font-size:32px;line-height:1;font-family:&#39;PT Sans Caption&#39;;font-variant-ligatures:none;text-align:center;text-anchor:middle" d="m 413.9475,-16.8 v 9.248 q 0,1.344 0.16,2.368 0.16,1.024 0.576,1.728 0.416,0.672 1.12,1.056 0.736,0.352 1.856,0.352 1.92,0 3.136,-1.088 1.216,-1.088 1.856,-2.688 V -16.8 h 2.944 v 12.032 q 0,1.216 0.096,2.496 0.096,1.248 0.288,2.272 h -1.984 l -0.768,-2.784 h -0.32 q -0.832,1.44 -2.304,2.336 -1.472,0.896 -3.68,0.896 -1.472,0 -2.592,-0.352 -1.088,-0.352 -1.856,-1.184 -0.736,-0.864 -1.12,-2.272 -0.352,-1.408 -0.352,-3.52 v -9.92 z" stroke-width="0" stroke-linejoin="miter" stroke-miterlimit="2" fill="#223674" stroke="#223674" transform="translate(1.1368683772161603e-13 408.85168) translate(424.41179499999987 57.952) scale(0.86) translate(-411.0035 16.8)"></path>
        <path id="path240276" style="font-style:normal;font-weight:400;font-size:32px;line-height:1;font-family:&#39;PT Sans Caption&#39;;font-variant-ligatures:none;text-align:center;text-anchor:middle" d="m 443.5645,0 v -9.28 q 0,-2.688 -0.864,-4.032 -0.864,-1.344 -3.072,-1.344 -1.952,0 -3.264,1.024 -1.28,0.992 -1.792,2.56 V 0 h -2.944 v -16.8 h 2.048 l 0.576,2.24 h 0.288 q 0.928,-1.152 2.4,-1.92 1.504,-0.8 3.584,-0.8 1.472,0 2.592,0.352 1.12,0.32 1.856,1.184 0.768,0.832 1.152,2.272 0.384,1.408 0.384,3.584 V 0 Z" stroke-width="0" stroke-linejoin="miter" stroke-miterlimit="2" fill="#223674" stroke="#223674" transform="translate(1.1368683772161603e-13 408.85168) translate(442.1492949999999 57.5392) scale(0.86) translate(-431.6285 17.28)"></path>
        <path id="path240278" style="font-style:normal;font-weight:400;font-size:32px;line-height:1;font-family:&#39;PT Sans Caption&#39;;font-variant-ligatures:none;text-align:center;text-anchor:middle" d="m 466.4965,0.096 q 0,3.296 -1.952,4.896 -1.92,1.632 -5.664,1.632 -2.176,0 -3.52,-0.256 -1.344,-0.256 -2.304,-0.704 l 0.704,-2.656 q 0.416,0.192 0.96,0.384 0.544,0.224 1.152,0.384 0.608,0.16 1.216,0.256 0.64,0.096 1.216,0.096 1.568,0 2.592,-0.288 1.024,-0.256 1.632,-0.832 0.608,-0.576 0.832,-1.472 0.224,-0.896 0.224,-2.144 v -1.184 h -0.352 q -0.512,0.832 -1.792,1.344 -1.28,0.512 -3.104,0.512 -3.648,0 -5.376,-1.952 -1.728,-1.984 -1.728,-6.368 0,-4.32 2.24,-6.656 2.24,-2.336 6.656,-2.336 2.112,0 3.616,0.256 1.536,0.256 2.752,0.672 z m -7.52,-2.528 q 1.952,0 3.04,-0.992 1.12,-0.992 1.536,-2.592 v -8.256 q -0.736,-0.224 -1.696,-0.352 -0.96,-0.128 -2.176,-0.128 -2.496,0 -3.904,1.6 -1.408,1.568 -1.408,4.832 0,2.816 1.024,4.352 1.056,1.536 3.584,1.536 z" stroke-width="0" stroke-linejoin="miter" stroke-miterlimit="2" fill="#223674" stroke="#223674" transform="translate(1.1368683772161603e-13 408.85168) translate(459.00873499999994 57.56672) scale(0.86) translate(-451.2325 17.248)"></path>
        <path id="path240280" style="font-style:normal;font-weight:400;font-size:32px;line-height:1;font-family:&#39;PT Sans Caption&#39;;font-variant-ligatures:none;text-align:center;text-anchor:middle" d="m 495.9035,-5.792 q 0,1.632 0.032,3.072 0.064,1.408 0.32,2.784 h -1.952 l -0.736,-2.56 h -0.32 q -0.736,1.28 -2.176,2.112 -1.408,0.832 -3.296,0.832 -3.616,0 -5.408,-2.144 -1.76,-2.144 -1.76,-6.592 0,-4.288 2.176,-6.56 2.208,-2.304 6.176,-2.304 0.672,0 1.184,0.064 0.544,0.032 0.992,0.096 0.48,0.064 0.896,0.192 0.448,0.128 0.928,0.256 V -22.4 h 2.944 z m -2.944,-7.904 q -0.736,-0.544 -1.6,-0.736 -0.832,-0.224 -2.24,-0.224 -2.592,0 -4.032,1.504 -1.408,1.504 -1.408,4.896 0,1.344 0.256,2.496 0.256,1.12 0.8,1.952 0.544,0.832 1.44,1.312 0.896,0.448 2.208,0.448 1.952,0 3.04,-0.96 1.088,-0.992 1.536,-2.912 z" stroke-width="0" stroke-linejoin="miter" stroke-miterlimit="2" fill="#223674" stroke="#223674" transform="translate(1.1368683772161603e-13 408.85168) translate(484.27123499999993 53.135999999999996) scale(0.86) translate(-480.6075 22.4)"></path>
        <path id="path240282" style="font-style:normal;font-weight:400;font-size:32px;line-height:1;font-family:&#39;PT Sans Caption&#39;;font-variant-ligatures:none;text-align:center;text-anchor:middle" d="m 515.2925,-1.376 q -1.12,0.832 -2.784,1.344 -1.664,0.48 -3.616,0.48 -2.112,0 -3.68,-0.608 -1.536,-0.64 -2.528,-1.792 -0.992,-1.152 -1.472,-2.784 -0.48,-1.632 -0.48,-3.648 0,-4.32 2.112,-6.592 2.144,-2.304 6.08,-2.304 1.248,0 2.496,0.288 1.248,0.256 2.24,1.024 0.992,0.736 1.6,2.048 0.64,1.312 0.64,3.424 0,0.512 -0.032,1.184 -0.032,0.672 -0.128,1.312 h -12 q 0.064,2.944 1.408,4.448 1.344,1.504 4.576,1.504 1.344,0 2.56,-0.448 1.216,-0.48 1.888,-1.12 z m -2.208,-8.736 q 0.064,-2.56 -1.056,-3.616 -1.088,-1.056 -3.072,-1.056 -2.24,0 -3.552,1.056 -1.312,1.056 -1.536,3.616 z" stroke-width="0" stroke-linejoin="miter" stroke-miterlimit="2" fill="#223674" stroke="#223674" transform="translate(1.1368683772161603e-13 408.85168) translate(501.57873499999994 57.5392) scale(0.86) translate(-500.7325 17.28)"></path>
        <path id="path240284" style="font-style:normal;font-weight:400;font-size:32px;line-height:1;font-family:&#39;PT Sans Caption&#39;;font-variant-ligatures:none;text-align:center;text-anchor:middle" d="m 532.6895,0 v -9.28 q 0,-1.376 -0.192,-2.368 -0.16,-1.024 -0.64,-1.696 -0.448,-0.672 -1.248,-0.992 -0.768,-0.32 -1.952,-0.32 -0.832,0 -1.632,0.288 -0.8,0.288 -1.472,0.8 -0.672,0.512 -1.152,1.248 -0.48,0.704 -0.704,1.6 V 0 h -2.944 v -22.4 h 2.944 v 7.68 h 0.352 q 0.96,-1.152 2.304,-1.856 1.344,-0.704 3.328,-0.704 1.536,0 2.656,0.352 1.12,0.32 1.856,1.184 0.736,0.832 1.088,2.272 0.352,1.408 0.352,3.552 V 0 Z" stroke-width="0" stroke-linejoin="miter" stroke-miterlimit="2" fill="#223674" stroke="#223674" transform="translate(1.1368683772161603e-13 408.85168) translate(518.796795 53.135999999999996) scale(0.86) translate(-520.7535 22.4)"></path>
        <path id="path240286" style="font-style:normal;font-weight:400;font-size:32px;line-height:1;font-family:&#39;PT Sans Caption&#39;;font-variant-ligatures:none;text-align:center;text-anchor:middle" d="m 555.6215,6.4 h -2.912 l -0.032,-8.224 h -0.352 q -0.736,1.088 -1.888,1.696 -1.12,0.576 -2.944,0.576 -7.136,0 -7.136,-8.704 0,-4.384 2.272,-6.624 2.304,-2.272 6.752,-2.272 0.96,0 1.888,0.096 0.928,0.096 1.76,0.256 0.832,0.128 1.472,0.32 0.672,0.16 1.12,0.352 z m -2.944,-20.416 q -1.472,-0.64 -3.84,-0.64 -2.592,0 -3.968,1.568 -1.376,1.568 -1.376,4.768 0,1.408 0.224,2.56 0.256,1.152 0.8,1.984 0.576,0.8 1.44,1.28 0.896,0.448 2.176,0.448 1.92,0 2.976,-0.96 1.088,-0.96 1.568,-2.88 z" stroke-width="0" stroke-linejoin="miter" stroke-miterlimit="2" fill="#223674" stroke="#223674" transform="translate(1.1368683772161603e-13 408.85168) translate(535.6562349999999 57.64928) scale(0.86) translate(-540.3575 17.152)"></path>
        <path id="path240288" style="font-style:normal;font-weight:400;font-size:32px;line-height:1;font-family:&#39;PT Sans Caption&#39;;font-variant-ligatures:none;text-align:center;text-anchor:middle" d="m 560.3575,-8.384 q 0,-2.08 0.544,-3.712 0.544,-1.664 1.6,-2.816 1.056,-1.152 2.56,-1.76 1.536,-0.608 3.488,-0.608 2.048,0 3.584,0.672 1.536,0.672 2.56,1.888 1.024,1.184 1.504,2.816 0.512,1.6 0.512,3.52 0,2.048 -0.576,3.68 -0.544,1.632 -1.6,2.784 -1.024,1.152 -2.56,1.76 -1.504,0.608 -3.424,0.608 -2.112,0 -3.648,-0.672 -1.536,-0.672 -2.56,-1.856 -0.992,-1.184 -1.504,-2.784 -0.48,-1.632 -0.48,-3.52 z m 3.136,0 q 0,1.184 0.256,2.336 0.288,1.12 0.896,2.016 0.608,0.896 1.568,1.44 0.96,0.544 2.368,0.544 4.992,0 4.992,-6.336 0,-1.248 -0.288,-2.4 -0.256,-1.152 -0.864,-2.016 -0.576,-0.896 -1.536,-1.44 -0.96,-0.544 -2.304,-0.544 -2.496,0 -3.808,1.6 -1.28,1.568 -1.28,4.8 z" stroke-width="0" stroke-linejoin="miter" stroke-miterlimit="2" fill="#223674" stroke="#223674" transform="translate(1.1368683772161603e-13 408.85168) translate(552.8562349999999 57.5392) scale(0.86) translate(-560.3575 17.28)"></path>
        <path id="path240290" style="font-style:normal;font-weight:400;font-size:32px;line-height:1;font-family:&#39;PT Sans Caption&#39;;font-variant-ligatures:none;text-align:center;text-anchor:middle" d="m 593.377,0 v -9.28 q 0,-2.688 -0.864,-4.032 -0.864,-1.344 -3.072,-1.344 -1.952,0 -3.264,1.024 -1.28,0.992 -1.792,2.56 V 0 h -2.944 v -16.8 h 2.048 l 0.576,2.24 h 0.288 q 0.928,-1.152 2.4,-1.92 1.504,-0.8 3.584,-0.8 1.472,0 2.592,0.352 1.12,0.32 1.856,1.184 0.768,0.832 1.152,2.272 0.384,1.408 0.384,3.584 V 0 Z" stroke-width="0" stroke-linejoin="miter" stroke-miterlimit="2" fill="#223674" stroke="#223674" transform="translate(1.1368683772161603e-13 408.85168) translate(570.9880449999999 57.5392) scale(0.86) translate(-581.441 17.28)"></path>
        <path id="path240292" style="font-style:normal;font-weight:400;font-size:32px;line-height:1;font-family:&#39;PT Sans Caption&#39;;font-variant-ligatures:none;text-align:center;text-anchor:middle" d="m 611.2535,-22.4 h 2.944 v 7.68 h 0.32 q 0.736,-1.28 2.112,-1.888 1.376,-0.64 2.912,-0.64 3.488,0 5.28,2.144 1.824,2.112 1.824,6.4 0,4.384 -2.368,6.688 -2.368,2.304 -6.656,2.304 -2.112,0 -3.84,-0.352 -1.696,-0.352 -2.528,-0.832 z m 7.872,7.648 q -1.024,0 -1.824,0.32 -0.768,0.32 -1.376,0.896 -0.608,0.544 -1.056,1.28 -0.416,0.704 -0.672,1.472 v 7.968 q 1.568,0.608 3.808,0.608 2.528,0 4,-1.536 1.504,-1.568 1.504,-4.992 0,-1.28 -0.256,-2.368 -0.256,-1.12 -0.8,-1.92 -0.544,-0.8 -1.376,-1.248 -0.8,-0.48 -1.952,-0.48 z" stroke-width="0" stroke-linejoin="miter" stroke-miterlimit="2" fill="#223674" stroke="#223674" transform="translate(1.1368683772161603e-13 408.85168) translate(596.6267949999999 53.135999999999996) scale(0.86) translate(-611.2535 22.4)"></path>
        <path id="path240294" style="font-style:normal;font-weight:400;font-size:32px;line-height:1;font-family:&#39;PT Sans Caption&#39;;font-variant-ligatures:none;text-align:center;text-anchor:middle" d="m 630.4825,-8.384 q 0,-2.08 0.544,-3.712 0.544,-1.664 1.6,-2.816 1.056,-1.152 2.56,-1.76 1.536,-0.608 3.488,-0.608 2.048,0 3.584,0.672 1.536,0.672 2.56,1.888 1.024,1.184 1.504,2.816 0.512,1.6 0.512,3.52 0,2.048 -0.576,3.68 -0.544,1.632 -1.6,2.784 -1.024,1.152 -2.56,1.76 -1.504,0.608 -3.424,0.608 -2.112,0 -3.648,-0.672 -1.536,-0.672 -2.56,-1.856 -0.992,-1.184 -1.504,-2.784 -0.48,-1.632 -0.48,-3.52 z m 3.136,0 q 0,1.184 0.256,2.336 0.288,1.12 0.896,2.016 0.608,0.896 1.568,1.44 0.96,0.544 2.368,0.544 4.992,0 4.992,-6.336 0,-1.248 -0.288,-2.4 -0.256,-1.152 -0.864,-2.016 -0.576,-0.896 -1.536,-1.44 -0.96,-0.544 -2.304,-0.544 -2.496,0 -3.808,1.6 -1.28,1.568 -1.28,4.8 z" stroke-width="0" stroke-linejoin="miter" stroke-miterlimit="2" fill="#223674" stroke="#223674" transform="translate(1.1368683772161603e-13 408.85168) translate(613.1637349999997 57.5392) scale(0.86) translate(-630.4825 17.28)"></path>
        <path id="path240296" style="font-style:normal;font-weight:400;font-size:32px;line-height:1;font-family:&#39;PT Sans Caption&#39;;font-variant-ligatures:none;text-align:center;text-anchor:middle" d="m 649.786,-2.528 8.288,-10.112 2.24,-1.664 H 649.786 V -16.8 h 13.216 v 2.528 l -8.384,10.208 -2.24,1.568 h 10.624 V 0 h -13.216 z" stroke-width="0" stroke-linejoin="miter" stroke-miterlimit="2" fill="#223674" stroke="#223674" transform="translate(1.1368683772161603e-13 408.85168) translate(629.7647449999997 57.952) scale(0.86) translate(-649.786 16.8)"></path>
        <path id="path240298" style="font-style:normal;font-weight:400;font-size:32px;line-height:1;font-family:&#39;PT Sans Caption&#39;;font-variant-ligatures:none;text-align:center;text-anchor:middle" d="m 666.17,-8.384 q 0,-2.08 0.544,-3.712 0.544,-1.664 1.6,-2.816 1.056,-1.152 2.56,-1.76 1.536,-0.608 3.488,-0.608 2.048,0 3.584,0.672 1.536,0.672 2.56,1.888 1.024,1.184 1.504,2.816 0.512,1.6 0.512,3.52 0,2.048 -0.576,3.68 -0.544,1.632 -1.6,2.784 -1.024,1.152 -2.56,1.76 -1.504,0.608 -3.424,0.608 -2.112,0 -3.648,-0.672 -1.536,-0.672 -2.56,-1.856 -0.992,-1.184 -1.504,-2.784 -0.48,-1.632 -0.48,-3.52 z m 3.136,0 q 0,1.184 0.256,2.336 0.288,1.12 0.896,2.016 0.608,0.896 1.568,1.44 0.96,0.544 2.368,0.544 4.992,0 4.992,-6.336 0,-1.248 -0.288,-2.4 -0.256,-1.152 -0.864,-2.016 -0.576,-0.896 -1.536,-1.44 -0.96,-0.544 -2.304,-0.544 -2.496,0 -3.808,1.6 -1.28,1.568 -1.28,4.8 z" stroke-width="0" stroke-linejoin="miter" stroke-miterlimit="2" fill="#223674" stroke="#223674" transform="translate(1.1368683772161603e-13 408.85168) translate(643.8549849999997 57.5392) scale(0.86) translate(-666.17 17.28)"></path>
        <path id="path240300" style="font-style:normal;font-weight:400;font-size:32px;line-height:1;font-family:&#39;PT Sans Caption&#39;;font-variant-ligatures:none;text-align:center;text-anchor:middle" d="m 696.0215,-14.016 q -0.544,-0.16 -1.056,-0.288 -0.512,-0.128 -0.96,-0.128 -1.696,0 -2.656,0.864 -0.928,0.864 -1.152,2.176 V 0 h -2.944 v -16.8 h 2.048 l 0.576,2.24 h 0.288 q 0.736,-1.248 1.696,-1.92 0.992,-0.704 2.464,-0.704 0.448,0 1.056,0.096 0.608,0.064 1.216,0.256 z" stroke-width="0" stroke-linejoin="miter" stroke-miterlimit="2" fill="#223674" stroke="#223674" transform="translate(1.1368683772161603e-13 408.85168) translate(661.9867949999998 57.62176) scale(0.86) translate(-687.2535 17.184)"></path>
      </g>
      <g id="title" style="font-style:normal;font-weight:300;font-size:72px;line-height:1;font-family:&#39;Montserrat Light Alt1&#39;;font-variant-ligatures:none;text-align:center;text-anchor:middle" transform="translate(0 0)">
        <path id="path240303" style="font-style:normal;font-weight:300;font-size:72px;line-height:1;font-family:&#39;Montserrat Light Alt1&#39;;font-variant-ligatures:none;text-align:center;text-anchor:middle" d="m 454.61319,-1.08 c 2.736,0.936 5.616,1.368 8.64,1.368 4.68,0 8.352,-0.936 10.944,-2.808 2.592,-1.872 3.888,-4.32 3.888,-7.488 0,-2.304 -0.648,-4.176 -1.872,-5.544 -1.296,-1.296 -2.808,-2.304 -4.608,-2.88 -1.8,-0.576 -4.176,-1.152 -7.056,-1.728 -2.664,-0.504 -4.752,-1.008 -6.192,-1.44 -1.44,-0.432 -2.664,-1.152 -3.672,-2.088 -1.008,-0.936 -1.512,-2.232 -1.512,-3.96 0,-2.088 0.864,-3.816 2.664,-5.112 1.728,-1.296 4.392,-1.944 7.92,-1.944 2.016,0 4.032,0.288 6.048,0.864 1.944,0.576 3.672,1.44 5.256,2.52 l 1.656,-2.88 c -1.512,-1.08 -3.456,-1.944 -5.76,-2.664 -2.376,-0.648 -4.752,-1.008 -7.128,-1.008 -4.608,0 -8.136,1.008 -10.584,2.952 -2.448,1.944 -3.672,4.392 -3.672,7.344 0,2.448 0.648,4.392 1.944,5.76 1.296,1.44 2.808,2.448 4.68,3.024 1.8,0.648 4.176,1.224 7.2,1.728 2.52,0.504 4.536,0.936 5.976,1.368 1.44,0.432 2.592,1.152 3.6,2.016 1.008,0.936 1.512,2.16 1.512,3.744 0,2.232 -0.936,3.96 -2.736,5.184 -1.8,1.296 -4.608,1.872 -8.352,1.872 -2.664,0 -5.184,-0.432 -7.632,-1.296 -2.448,-0.864 -4.392,-1.944 -5.904,-3.24 l -1.656,2.88 c 1.512,1.44 3.672,2.592 6.408,3.456 z" stroke-width="0" stroke-linejoin="miter" stroke-miterlimit="2" fill="#223674" stroke="#223674" transform="translate(0 337.89968) translate(322.85994500000004 -10.192) scale(3) translate(-448.20519 37.872)"></path>
        <path id="path240305" style="font-style:normal;font-weight:300;font-size:72px;line-height:1;font-family:&#39;Montserrat Light Alt1&#39;;font-variant-ligatures:none;text-align:center;text-anchor:middle" d="m 521.61031,-53.424 h -3.6 v 24.552 c -1.584,-2.808 -3.672,-5.04 -6.336,-6.624 -2.664,-1.584 -5.688,-2.376 -9,-2.376 -3.528,0 -6.696,0.864 -9.504,2.448 -2.88,1.584 -5.112,3.888 -6.696,6.768 -1.584,2.88 -2.376,6.192 -2.376,9.864 0,3.744 0.792,6.984 2.376,9.864 1.584,2.88 3.816,5.184 6.696,6.768 2.808,1.656 5.976,2.448 9.504,2.448 3.384,0 6.408,-0.792 9.144,-2.376 2.664,-1.584 4.752,-3.816 6.264,-6.768 V 0 h 3.528 z m -11.016,48.456 c -2.304,1.368 -4.824,2.016 -7.704,2.016 -2.88,0 -5.472,-0.648 -7.776,-2.016 -2.304,-1.296 -4.104,-3.168 -5.4,-5.616 -1.296,-2.376 -1.944,-5.112 -1.944,-8.208 0,-3.024 0.648,-5.76 1.944,-8.208 1.296,-2.376 3.096,-4.248 5.4,-5.616 2.304,-1.296 4.896,-2.016 7.776,-2.016 2.88,0 5.4,0.72 7.704,2.016 2.304,1.368 4.104,3.24 5.4,5.616 1.296,2.448 2.016,5.184 2.016,8.208 0,3.096 -0.72,5.832 -2.016,8.208 -1.296,2.448 -3.096,4.32 -5.4,5.616 z" stroke-width="0" stroke-linejoin="miter" stroke-miterlimit="2" fill="#223674" stroke="#223674" transform="translate(0 337.89968) translate(430.53930500000007 -56.84799999999999) scale(3) translate(-484.09831 53.424)"></path>
        <path id="path240307" style="font-style:normal;font-weight:300;font-size:72px;line-height:1;font-family:&#39;Montserrat Light Alt1&#39;;font-variant-ligatures:none;text-align:center;text-anchor:middle" d="m 565.22656,-35.424 c -2.88,-1.584 -6.048,-2.448 -9.504,-2.448 -3.312,0 -6.336,0.792 -9,2.376 -2.736,1.584 -4.824,3.744 -6.264,6.48 v -24.408 h -3.6 V 0 h 3.456 v -8.856 c 1.44,2.88 3.528,5.184 6.264,6.768 2.736,1.584 5.76,2.376 9.144,2.376 3.456,0 6.624,-0.792 9.504,-2.448 2.808,-1.584 5.04,-3.888 6.624,-6.768 1.584,-2.88 2.448,-6.12 2.448,-9.864 0,-3.672 -0.864,-6.984 -2.448,-9.864 -1.584,-2.88 -3.816,-5.184 -6.624,-6.768 z m -1.944,30.456 c -2.304,1.368 -4.896,2.016 -7.776,2.016 -2.88,0 -5.472,-0.648 -7.776,-2.016 -2.304,-1.296 -4.104,-3.168 -5.4,-5.616 -1.296,-2.376 -1.944,-5.112 -1.944,-8.208 0,-3.024 0.648,-5.76 1.944,-8.208 1.296,-2.376 3.096,-4.248 5.4,-5.616 2.304,-1.296 4.896,-2.016 7.776,-2.016 2.88,0 5.472,0.72 7.776,2.016 2.304,1.368 4.104,3.24 5.4,5.616 1.296,2.448 2.016,5.184 2.016,8.208 0,3.096 -0.72,5.832 -2.016,8.208 -1.296,2.448 -3.096,4.32 -5.4,5.616 z" stroke-width="0" stroke-linejoin="miter" stroke-miterlimit="2" fill="#223674" stroke="#223674" transform="translate(0 337.89968) translate(588.820055 -56.84799999999999) scale(3) translate(-536.85856 53.424)"></path>
      </g>
      <image xlink:href="" id="icon" x="0" y="0" style="display: none;"></image>
    </g>
  </g>
</svg>