<svg xmlns:dc="http://purl.org/dc/elements/1.1/" xmlns:cc="http://creativecommons.org/ns#" xmlns:rdf="http://www.w3.org/1999/02/22-rdf-syntax-ns#" xmlns:svg="http://www.w3.org/2000/svg" xmlns="http://www.w3.org/2000/svg" xmlns:xlink="http://www.w3.org/1999/xlink" id="svg63574" viewBox="0 0 1024 768" height="768px" width="1024px" version="1.1">
  <metadata id="metadata63580">
    <rdf:rdf>
      <cc:work rdf:about="">
        <dc:format>image/svg+xml</dc:format>
        <dc:type rdf:resource="http://purl.org/dc/dcmitype/StillImage"></dc:type>
      </cc:work>
    </rdf:rdf>
  </metadata>
  <defs id="defs63578"></defs>
  <lineargradient spreadMethod="pad" y2="30%" x2="-10%" y1="120%" x1="30%" id="3d_gradient2-logo-ad97dc06-2b39-448d-af6a-a083fc0c37f6">
    <stop id="stop63555" stop-opacity="1" stop-color="#ffffff" offset="0%"></stop>
    <stop id="stop63557" stop-opacity="1" stop-color="#000000" offset="100%"></stop>
  </lineargradient>
  <lineargradient gradientTransform="rotate(-30)" spreadMethod="pad" y2="30%" x2="-10%" y1="120%" x1="30%" id="3d_gradient3-logo-ad97dc06-2b39-448d-af6a-a083fc0c37f6">
    <stop id="stop63560" stop-opacity="1" stop-color="#ffffff" offset="0%"></stop>
    <stop id="stop63562" stop-opacity="1" stop-color="#cccccc" offset="50%"></stop>
    <stop id="stop63564" stop-opacity="1" stop-color="#000000" offset="100%"></stop>
  </lineargradient>
  <g id="logo-group">
    <image xlink:href="" id="container" x="272" y="144" width="480" height="480" transform="translate(0 0)" style="display: none;"></image>
    <g id="logo-center" transform="translate(0 0)">
      <image xlink:href="" id="icon_container" x="0" y="0" style="display: none;"></image>
      <g id="slogan" style="font-style:normal;font-weight:400;font-size:32px;line-height:1;font-family:Orienta;font-variant-ligatures:none;text-align:center;text-anchor:middle" transform="translate(0 0)">
        <path id="path63582" style="font-style:normal;font-weight:400;font-size:32px;line-height:1;font-family:Orienta;font-variant-ligatures:none;text-align:center;text-anchor:middle" d="m 341.22325,-15.104 q -1.216,0 -2.048,0.544 -0.832,0.544 -0.832,1.664 0,0.896 0.64,1.504 0.64,0.576 1.6,1.056 0.96,0.48 2.048,0.96 1.12,0.48 2.08,1.152 0.96,0.64 1.6,1.6 0.64,0.928 0.64,2.368 0,2.144 -1.568,3.456 -1.568,1.28 -4.352,1.28 -2.752,0 -4.224,-1.28 -1.44,-1.312 -1.984,-3.616 l 2.656,-0.896 q 0.16,1.056 0.512,1.728 0.384,0.672 0.896,1.056 0.512,0.384 1.12,0.544 0.608,0.128 1.248,0.128 1.088,0 1.92,-0.512 0.832,-0.544 0.832,-1.664 0,-0.832 -0.64,-1.376 -0.64,-0.544 -1.6,-1.024 -0.96,-0.48 -2.08,-0.96 -1.088,-0.512 -2.048,-1.216 -0.96,-0.704 -1.6,-1.696 -0.64,-1.024 -0.64,-2.528 0,-0.736 0.288,-1.536 0.288,-0.832 0.96,-1.504 0.704,-0.672 1.824,-1.12 1.152,-0.448 2.816,-0.448 2.208,0 3.648,0.992 1.472,0.96 2.112,3.264 l -2.656,0.896 q -0.352,-1.312 -1.152,-2.048 -0.8,-0.768 -2.016,-0.768 z" stroke-width="0" stroke-linejoin="miter" stroke-miterlimit="2" fill="#1a345f" stroke="#1a345f" transform="translate(0 406.4744) translate(351.6744999999999 59.001599999999996) scale(0.86) translate(-334.82325 17.44)"></path>
        <path id="path63584" style="font-style:normal;font-weight:400;font-size:32px;line-height:1;font-family:Orienta;font-variant-ligatures:none;text-align:center;text-anchor:middle" d="m 357.16975,-14.944 q -2.688,0 -3.488,2.656 l -2.656,-0.896 q 1.28,-4.256 6.144,-4.256 3.36,0 4.832,1.696 1.504,1.664 1.504,5.472 v 7.552 q 0,0.512 0.224,0.704 0.256,0.16 0.608,0.16 0.256,0 0.544,-0.064 0.288,-0.096 0.544,-0.224 l 0.512,1.984 q -0.512,0.256 -1.12,0.448 -0.608,0.192 -1.344,0.192 -1.152,0 -1.952,-0.544 -0.768,-0.576 -0.928,-2.176 -0.48,0.512 -1.088,1.024 -0.608,0.48 -1.344,0.864 -0.704,0.384 -1.536,0.608 -0.8,0.224 -1.696,0.224 -0.96,0 -1.824,-0.384 -0.832,-0.352 -1.44,-0.992 -0.608,-0.64 -0.96,-1.504 -0.352,-0.896 -0.352,-1.92 0,-2.624 1.76,-4.096 1.792,-1.472 4.928,-1.472 0.864,0 1.728,0.128 0.864,0.128 1.664,0.384 v -2.016 q 0,-1.664 -0.864,-2.592 -0.864,-0.96 -2.4,-0.96 z m -1.312,12.928 q 1.216,0 2.368,-0.576 1.184,-0.608 2.208,-1.632 v -3.104 q -0.672,-0.224 -1.44,-0.352 -0.768,-0.128 -1.504,-0.128 -0.8,0 -1.536,0.16 -0.736,0.16 -1.312,0.544 -0.544,0.384 -0.896,1.024 -0.32,0.608 -0.32,1.504 0,1.056 0.672,1.824 0.672,0.736 1.76,0.736 z" stroke-width="0" stroke-linejoin="miter" stroke-miterlimit="2" fill="#1a345f" stroke="#1a345f" transform="translate(0 406.4744) translate(365.8907299999999 59.001599999999996) scale(0.86) translate(-350.35375 17.44)"></path>
        <path id="path63586" style="font-style:normal;font-weight:400;font-size:32px;line-height:1;font-family:Orienta;font-variant-ligatures:none;text-align:center;text-anchor:middle" d="m 372.51075,-16.96 0.16,1.984 q 0.928,-0.96 2.176,-1.696 1.28,-0.768 2.816,-0.768 1.952,0 3.136,0.64 1.184,0.64 1.728,2.08 0.928,-1.056 2.24,-1.888 1.344,-0.832 2.976,-0.832 1.44,0 2.464,0.352 1.056,0.352 1.696,1.12 0.64,0.736 0.928,1.952 0.32,1.216 0.32,2.944 V 0 h -3.072 v -11.392 q 0,-3.552 -3.04,-3.552 -1.12,0 -2.144,0.544 -1.024,0.512 -1.952,1.44 0.064,0.448 0.096,0.896 0.032,0.448 0.032,0.992 V 0 h -3.072 v -11.392 q 0,-3.552 -3.04,-3.552 -1.056,0 -2.08,0.512 -0.992,0.512 -1.888,1.376 V 0 h -3.072 v -16.96 z" stroke-width="0" stroke-linejoin="miter" stroke-miterlimit="2" fill="#1a345f" stroke="#1a345f" transform="translate(0 406.4744) translate(383.5766299999999 59.001599999999996) scale(0.86) translate(-369.91875 17.44)"></path>
        <path id="path63588" style="font-style:normal;font-weight:400;font-size:32px;line-height:1;font-family:Orienta;font-variant-ligatures:none;text-align:center;text-anchor:middle" d="m 404.22325,-15.104 q -1.216,0 -2.048,0.544 -0.832,0.544 -0.832,1.664 0,0.896 0.64,1.504 0.64,0.576 1.6,1.056 0.96,0.48 2.048,0.96 1.12,0.48 2.08,1.152 0.96,0.64 1.6,1.6 0.64,0.928 0.64,2.368 0,2.144 -1.568,3.456 -1.568,1.28 -4.352,1.28 -2.752,0 -4.224,-1.28 -1.44,-1.312 -1.984,-3.616 l 2.656,-0.896 q 0.16,1.056 0.512,1.728 0.384,0.672 0.896,1.056 0.512,0.384 1.12,0.544 0.608,0.128 1.248,0.128 1.088,0 1.92,-0.512 0.832,-0.544 0.832,-1.664 0,-0.832 -0.64,-1.376 -0.64,-0.544 -1.6,-1.024 -0.96,-0.48 -2.08,-0.96 -1.088,-0.512 -2.048,-1.216 -0.96,-0.704 -1.6,-1.696 -0.64,-1.024 -0.64,-2.528 0,-0.736 0.288,-1.536 0.288,-0.832 0.96,-1.504 0.704,-0.672 1.824,-1.12 1.152,-0.448 2.816,-0.448 2.208,0 3.648,0.992 1.472,0.96 2.112,3.264 l -2.656,0.896 q -0.352,-1.312 -1.152,-2.048 -0.8,-0.768 -2.016,-0.768 z" stroke-width="0" stroke-linejoin="miter" stroke-miterlimit="2" fill="#1a345f" stroke="#1a345f" transform="translate(0 406.4744) translate(408.43449999999984 59.001599999999996) scale(0.86) translate(-397.82325 17.44)"></path>
        <path id="path63590" style="font-style:normal;font-weight:400;font-size:32px;line-height:1;font-family:Orienta;font-variant-ligatures:none;text-align:center;text-anchor:middle" d="m 427.94575,-2.72 q 0,0.512 0.224,0.704 0.256,0.16 0.608,0.16 0.256,0 0.544,-0.064 0.288,-0.096 0.544,-0.224 l 0.512,1.984 q -0.512,0.256 -1.12,0.448 -0.608,0.192 -1.344,0.192 -1.12,0 -1.888,-0.512 -0.768,-0.512 -0.96,-1.92 -0.992,0.96 -2.432,1.696 -1.408,0.736 -3.328,0.736 -2.528,0 -3.68,-1.504 -1.152,-1.536 -1.152,-4.448 V -16.96 h 3.072 v 11.52 q 0,1.728 0.608,2.592 0.608,0.832 2.048,0.832 1.408,0 2.56,-0.512 1.152,-0.512 2.112,-1.376 V -16.96 h 3.072 z" stroke-width="0" stroke-linejoin="miter" stroke-miterlimit="2" fill="#1a345f" stroke="#1a345f" transform="translate(0 406.4744) translate(423.61392999999987 59.4144) scale(0.86) translate(-414.47375 16.96)"></path>
        <path id="path63592" style="font-style:normal;font-weight:400;font-size:32px;line-height:1;font-family:Orienta;font-variant-ligatures:none;text-align:center;text-anchor:middle" d="m 437.13575,-16.96 0.16,2.048 q 0.992,-0.992 2.336,-1.76 1.344,-0.768 3.008,-0.768 1.504,0 2.56,0.352 1.056,0.352 1.696,1.12 0.672,0.736 0.96,1.952 0.32,1.216 0.32,2.944 V 0 h -3.072 v -11.392 q 0,-3.552 -3.232,-3.552 -1.12,0 -2.208,0.512 -1.088,0.512 -2.048,1.408 V 0 h -3.072 v -16.96 z" stroke-width="0" stroke-linejoin="miter" stroke-miterlimit="2" fill="#1a345f" stroke="#1a345f" transform="translate(0 406.4744) translate(441.7341299999999 59.001599999999996) scale(0.86) translate(-434.54375 17.44)"></path>
        <path id="path63594" style="font-style:normal;font-weight:400;font-size:32px;line-height:1;font-family:Orienta;font-variant-ligatures:none;text-align:center;text-anchor:middle" d="m 462.61525,-2.24 q 1.088,0 2.08,0.256 0.992,0.224 1.76,0.768 0.768,0.544 1.216,1.408 0.448,0.864 0.448,2.112 0,2.464 -1.952,3.84 -1.952,1.376 -5.792,1.376 -7.744,0 -7.744,-4.896 0,-1.088 0.64,-2.016 0.64,-0.928 1.696,-1.504 -1.152,-1.056 -1.152,-2.912 0,-0.96 0.384,-1.824 0.384,-0.864 1.216,-1.504 -1.504,-1.6 -1.504,-4.16 0,-1.44 0.48,-2.592 0.512,-1.152 1.376,-1.92 0.864,-0.8 2.048,-1.216 1.184,-0.416 2.592,-0.416 1.568,0 2.912,0.544 0.736,-0.032 1.28,-0.64 0.544,-0.608 0.544,-2.24 h 0.64 l 1.856,0.64 q 0,1.664 -0.608,2.528 -0.576,0.832 -1.6,1.184 0.704,0.768 1.088,1.824 0.416,1.024 0.416,2.304 0,1.44 -0.512,2.592 -0.48,1.12 -1.376,1.92 -0.864,0.768 -2.08,1.184 -1.184,0.416 -2.56,0.416 -1.984,0 -3.456,-0.768 -0.384,0.352 -0.608,0.864 -0.192,0.48 -0.192,0.992 0,0.8 0.544,1.344 0.544,0.512 1.696,0.512 z m -5.76,-9.056 q 0,1.024 0.32,1.792 0.32,0.736 0.8,1.216 0.512,0.48 1.152,0.704 0.64,0.224 1.28,0.224 0.64,0 1.28,-0.224 0.64,-0.224 1.152,-0.704 0.512,-0.48 0.832,-1.216 0.32,-0.768 0.32,-1.792 0,-1.056 -0.32,-1.792 -0.32,-0.768 -0.832,-1.248 -0.512,-0.48 -1.152,-0.704 -0.64,-0.224 -1.28,-0.224 -0.64,0 -1.28,0.224 -0.64,0.224 -1.152,0.704 -0.48,0.48 -0.8,1.248 -0.32,0.736 -0.32,1.792 z m 1.792,11.552 q -1.088,0 -2.016,-0.256 -0.448,0.48 -0.832,1.088 -0.352,0.64 -0.352,1.376 0,2.688 4.928,2.688 2.496,0 3.712,-0.672 1.216,-0.64 1.216,-2.144 0,-0.672 -0.288,-1.088 -0.256,-0.384 -0.672,-0.608 -0.384,-0.224 -0.896,-0.32 -0.48,-0.064 -0.96,-0.064 z" stroke-width="0" stroke-linejoin="miter" stroke-miterlimit="2" fill="#1a345f" stroke="#1a345f" transform="translate(0 406.4744) translate(458.1493799999999 56.99264) scale(0.86) translate(-452.63125 19.776)"></path>
        <path id="path63596" style="font-style:normal;font-weight:400;font-size:32px;line-height:1;font-family:Orienta;font-variant-ligatures:none;text-align:center;text-anchor:middle" d="m 486.26725,0.48 q -2.944,0 -4.736,-2.24 -1.76,-2.272 -1.76,-6.72 0,-2.208 0.576,-3.872 0.576,-1.696 1.568,-2.816 0.992,-1.152 2.336,-1.696 1.344,-0.576 2.88,-0.576 1.184,0 2.208,0.384 1.056,0.352 1.92,0.928 V -24 h 3.072 v 21.28 q 0,0.512 0.224,0.704 0.256,0.16 0.608,0.16 0.256,0 0.544,-0.064 0.288,-0.096 0.544,-0.224 l 0.512,1.984 q -0.512,0.256 -1.12,0.448 -0.608,0.192 -1.344,0.192 -1.088,0 -1.856,-0.48 -0.768,-0.512 -0.96,-1.888 -0.928,0.96 -2.208,1.664 -1.28,0.704 -3.008,0.704 z m 0.672,-2.496 q 1.248,0 2.304,-0.512 1.088,-0.512 2.016,-1.344 V -13.6 q -0.736,-0.544 -1.792,-0.928 -1.024,-0.416 -2.208,-0.416 -1.888,0 -3.104,1.6 -1.184,1.568 -1.184,4.864 0,3.296 1.088,4.896 1.12,1.568 2.88,1.568 z" stroke-width="0" stroke-linejoin="miter" stroke-miterlimit="2" fill="#1a345f" stroke="#1a345f" transform="translate(0 406.4744) translate(482.3497799999999 53.36) scale(0.86) translate(-479.77125 24)"></path>
        <path id="path63598" style="font-style:normal;font-weight:400;font-size:32px;line-height:1;font-family:Orienta;font-variant-ligatures:none;text-align:center;text-anchor:middle" d="m 507.89475,-2.016 q 1.632,0 2.816,-0.608 1.216,-0.64 1.952,-1.344 l 1.376,1.664 q -0.992,1.12 -2.592,1.952 -1.6,0.832 -3.648,0.832 -1.696,0 -3.136,-0.544 -1.44,-0.576 -2.496,-1.696 -1.024,-1.152 -1.632,-2.816 -0.576,-1.696 -0.576,-3.904 0,-2.208 0.576,-3.872 0.576,-1.696 1.6,-2.816 1.024,-1.152 2.4,-1.696 1.408,-0.576 3.04,-0.576 1.504,0 2.752,0.48 1.28,0.448 2.176,1.408 0.896,0.96 1.376,2.4 0.512,1.408 0.512,3.328 v 2.24 h -11.2 q 0.192,2.848 1.472,4.224 1.312,1.344 3.232,1.344 z m -0.288,-12.928 q -1.728,0 -2.944,1.28 -1.184,1.248 -1.44,3.84 h 8.128 q 0,-2.464 -0.992,-3.776 -0.96,-1.344 -2.752,-1.344 z" stroke-width="0" stroke-linejoin="miter" stroke-miterlimit="2" fill="#1a345f" stroke="#1a345f" transform="translate(0 406.4744) translate(500.57102999999984 59.001599999999996) scale(0.86) translate(-499.95875 17.44)"></path>
        <path id="path63600" style="font-style:normal;font-weight:400;font-size:32px;line-height:1;font-family:Orienta;font-variant-ligatures:none;text-align:center;text-anchor:middle" d="m 522.76825,-14.656 q 0.96,-1.312 2.304,-2.048 1.344,-0.736 2.88,-0.736 1.504,0 2.56,0.352 1.056,0.352 1.696,1.12 0.672,0.736 0.96,1.952 0.32,1.216 0.32,2.944 V 0 h -3.072 v -11.392 q 0,-3.552 -3.168,-3.552 -2.656,0 -4.32,2.24 V 0 h -3.072 v -24 h 2.912 z" stroke-width="0" stroke-linejoin="miter" stroke-miterlimit="2" fill="#1a345f" stroke="#1a345f" transform="translate(0 406.4744) translate(518.5428799999999 53.36) scale(0.86) translate(-519.85625 24)"></path>
        <path id="path63602" style="font-style:normal;font-weight:400;font-size:32px;line-height:1;font-family:Orienta;font-variant-ligatures:none;text-align:center;text-anchor:middle" d="m 545.07975,0.48 q -2.944,0 -4.736,-2.24 -1.76,-2.272 -1.76,-6.72 0,-2.208 0.576,-3.872 0.576,-1.696 1.568,-2.816 0.992,-1.152 2.336,-1.696 1.344,-0.576 2.88,-0.576 1.44,0 2.656,0.544 1.248,0.512 2.176,1.312 l 0.896,-1.856 h 1.472 V 7.52 h -3.072 v -9.184 q -0.896,0.896 -2.144,1.536 -1.216,0.608 -2.848,0.608 z m 0.672,-2.496 q 1.248,0 2.304,-0.512 1.088,-0.512 2.016,-1.344 V -13.6 q -0.736,-0.544 -1.792,-0.928 -1.024,-0.416 -2.208,-0.416 -1.888,0 -3.104,1.6 -1.184,1.568 -1.184,4.864 0,3.296 1.088,4.896 1.12,1.568 2.88,1.568 z" stroke-width="0" stroke-linejoin="miter" stroke-miterlimit="2" fill="#1a345f" stroke="#1a345f" transform="translate(0 406.4744) translate(535.5085299999998 59.001599999999996) scale(0.86) translate(-538.58375 17.44)"></path>
        <path id="path63604" style="font-style:normal;font-weight:400;font-size:32px;line-height:1;font-family:Orienta;font-variant-ligatures:none;text-align:center;text-anchor:middle" d="m 558.58375,-8.48 q 0,-2.208 0.576,-3.872 0.608,-1.696 1.632,-2.816 1.024,-1.152 2.432,-1.696 1.44,-0.576 3.072,-0.576 1.632,0 3.04,0.576 1.44,0.544 2.464,1.696 1.056,1.12 1.632,2.816 0.608,1.664 0.608,3.872 0,2.208 -0.608,3.904 -0.576,1.664 -1.632,2.816 -1.024,1.12 -2.464,1.696 -1.408,0.544 -3.04,0.544 -1.632,0 -3.072,-0.544 -1.408,-0.576 -2.432,-1.696 -1.024,-1.152 -1.632,-2.816 -0.576,-1.696 -0.576,-3.904 z m 3.2,0 q 0,3.296 1.248,4.896 1.28,1.568 3.264,1.568 2.016,0 3.264,-1.568 1.28,-1.6 1.28,-4.896 0,-3.296 -1.28,-4.864 -1.248,-1.6 -3.264,-1.6 -1.984,0 -3.264,1.6 -1.248,1.568 -1.248,4.864 z" stroke-width="0" stroke-linejoin="miter" stroke-miterlimit="2" fill="#1a345f" stroke="#1a345f" transform="translate(0 406.4744) translate(553.5685299999999 59.001599999999996) scale(0.86) translate(-558.58375 17.44)"></path>
        <path id="path63606" style="font-style:normal;font-weight:400;font-size:32px;line-height:1;font-family:Orienta;font-variant-ligatures:none;text-align:center;text-anchor:middle" d="m 582.07325,-16.96 0.16,2.048 q 0.992,-0.992 2.336,-1.76 1.344,-0.768 3.008,-0.768 1.504,0 2.56,0.352 1.056,0.352 1.696,1.12 0.672,0.736 0.96,1.952 0.32,1.216 0.32,2.944 V 0 h -3.072 v -11.392 q 0,-3.552 -3.232,-3.552 -1.12,0 -2.208,0.512 -1.088,0.512 -2.048,1.408 V 0 h -3.072 v -16.96 z" stroke-width="0" stroke-linejoin="miter" stroke-miterlimit="2" fill="#1a345f" stroke="#1a345f" transform="translate(0 406.4744) translate(572.4003799999999 59.001599999999996) scale(0.86) translate(-579.48125 17.44)"></path>
        <path id="path63608" style="font-style:normal;font-weight:400;font-size:32px;line-height:1;font-family:Orienta;font-variant-ligatures:none;text-align:center;text-anchor:middle" d="m 615.85775,-17.44 q 1.472,0 2.656,0.576 1.216,0.544 2.048,1.696 0.864,1.12 1.312,2.816 0.48,1.664 0.48,3.872 0,2.208 -0.576,3.904 -0.576,1.664 -1.568,2.816 -0.992,1.12 -2.336,1.696 -1.344,0.544 -2.88,0.544 -1.472,0 -2.72,-0.544 -1.248,-0.544 -2.208,-1.376 l -0.8,1.44 h -1.472 v -24 h 3.072 v 8.704 q 0.896,-0.864 2.112,-1.504 1.248,-0.64 2.88,-0.64 z m -0.672,2.496 q -1.28,0 -2.368,0.512 -1.056,0.512 -1.952,1.376 v 9.696 q 0.736,0.576 1.76,0.96 1.024,0.384 2.24,0.384 1.888,0 3.072,-1.568 1.216,-1.6 1.216,-4.896 0,-3.296 -1.12,-4.864 -1.088,-1.6 -2.848,-1.6 z" stroke-width="0" stroke-linejoin="miter" stroke-miterlimit="2" fill="#1a345f" stroke="#1a345f" transform="translate(0 406.4744) translate(597.6091299999999 53.36) scale(0.86) translate(-607.79375 24)"></path>
        <path id="path63610" style="font-style:normal;font-weight:400;font-size:32px;line-height:1;font-family:Orienta;font-variant-ligatures:none;text-align:center;text-anchor:middle" d="m 626.83375,-8.48 q 0,-2.208 0.576,-3.872 0.608,-1.696 1.632,-2.816 1.024,-1.152 2.432,-1.696 1.44,-0.576 3.072,-0.576 1.632,0 3.04,0.576 1.44,0.544 2.464,1.696 1.056,1.12 1.632,2.816 0.608,1.664 0.608,3.872 0,2.208 -0.608,3.904 -0.576,1.664 -1.632,2.816 -1.024,1.12 -2.464,1.696 -1.408,0.544 -3.04,0.544 -1.632,0 -3.072,-0.544 -1.408,-0.576 -2.432,-1.696 -1.024,-1.152 -1.632,-2.816 -0.576,-1.696 -0.576,-3.904 z m 3.2,0 q 0,3.296 1.248,4.896 1.28,1.568 3.264,1.568 2.016,0 3.264,-1.568 1.28,-1.6 1.28,-4.896 0,-3.296 -1.28,-4.864 -1.248,-1.6 -3.264,-1.6 -1.984,0 -3.264,1.6 -1.248,1.568 -1.248,4.864 z" stroke-width="0" stroke-linejoin="miter" stroke-miterlimit="2" fill="#1a345f" stroke="#1a345f" transform="translate(0 406.4744) translate(614.84353 59.001599999999996) scale(0.86) translate(-626.83375 17.44)"></path>
        <path id="path63612" style="font-style:normal;font-weight:400;font-size:32px;line-height:1;font-family:Orienta;font-variant-ligatures:none;text-align:center;text-anchor:middle" d="m 645.97125,-1.6 8.256,-12.96 h -7.616 v -2.4 h 11.264 v 1.6 l -8.256,12.96 h 8.096 V 0 h -11.744 z" stroke-width="0" stroke-linejoin="miter" stroke-miterlimit="2" fill="#1a345f" stroke="#1a345f" transform="translate(0 406.4744) translate(632.16178 59.4144) scale(0.86) translate(-645.97125 16.96)"></path>
        <path id="path63614" style="font-style:normal;font-weight:400;font-size:32px;line-height:1;font-family:Orienta;font-variant-ligatures:none;text-align:center;text-anchor:middle" d="m 661.58375,-8.48 q 0,-2.208 0.576,-3.872 0.608,-1.696 1.632,-2.816 1.024,-1.152 2.432,-1.696 1.44,-0.576 3.072,-0.576 1.632,0 3.04,0.576 1.44,0.544 2.464,1.696 1.056,1.12 1.632,2.816 0.608,1.664 0.608,3.872 0,2.208 -0.608,3.904 -0.576,1.664 -1.632,2.816 -1.024,1.12 -2.464,1.696 -1.408,0.544 -3.04,0.544 -1.632,0 -3.072,-0.544 -1.408,-0.576 -2.432,-1.696 -1.024,-1.152 -1.632,-2.816 -0.576,-1.696 -0.576,-3.904 z m 3.2,0 q 0,3.296 1.248,4.896 1.28,1.568 3.264,1.568 2.016,0 3.264,-1.568 1.28,-1.6 1.28,-4.896 0,-3.296 -1.28,-4.864 -1.248,-1.6 -3.264,-1.6 -1.984,0 -3.264,1.6 -1.248,1.568 -1.248,4.864 z" stroke-width="0" stroke-linejoin="miter" stroke-miterlimit="2" fill="#1a345f" stroke="#1a345f" transform="translate(0 406.4744) translate(646.44853 59.001599999999996) scale(0.86) translate(-661.58375 17.44)"></path>
        <path id="path63616" style="font-style:normal;font-weight:400;font-size:32px;line-height:1;font-family:Orienta;font-variant-ligatures:none;text-align:center;text-anchor:middle" d="m 685.07325,-16.96 0.16,2.08 q 0.992,-1.12 2.368,-1.792 1.376,-0.704 2.912,-0.768 l 0.16,2.304 -0.384,0.352 q -1.504,0.032 -2.72,0.544 -1.184,0.48 -2.016,1.344 V 0 h -3.072 v -16.96 z" stroke-width="0" stroke-linejoin="miter" stroke-miterlimit="2" fill="#1a345f" stroke="#1a345f" transform="translate(0 406.4744) translate(665.28038 59.001599999999996) scale(0.86) translate(-682.48125 17.44)"></path>
      </g>
      <g id="title" style="font-style:normal;font-weight:400;font-size:72px;line-height:1;font-family:&#39;Brandmark Dots 1 Color&#39;;font-variant-ligatures:normal;text-align:center;text-anchor:middle" transform="translate(0 0)">
        <g id="path63619" aria-label="S" transform="translate(0 334.4504) translate(300.6895549999999 -53.391999999999996) scale(3) translate(-441.00687 51.696)"> <path class="c3" d="M90.67529,115.04073c0,2.66406-2.16016,4.75293-4.82422,4.75293 c-2.59277,0-4.75293-2.08887-4.75293-4.75293s2.16016-4.75195,4.75293-4.75195 C88.51514,110.28877,90.67529,112.37666,90.67529,115.04073z" transform="translate(359.90873 -125.18887)" stroke-width="0" stroke-linejoin="miter" stroke-miterlimit="2" fill="#265897" stroke="#265897"></path> <path class="c1" d="M102.48486,126.48994c-3.74512,0-8.78516-1.44043-8.78516-5.1123 c0-3.02441,2.01563-4.68066,4.39258-4.53613c2.44824,0.14355,5.1123,1.00781,7.7041-0.2168 c2.0166-0.93555,3.52832-2.73633,3.52832-5.25586c0-3.02441-3.38379-4.96875-10.72852-7.63281 c-6.625-2.37598-16.56152-5.32813-16.63379-15.19336c0-3.74414,1.44043-7.27246,4.10449-10.00879 c2.30469-2.30469,6.55273-5.04102,13.96973-5.04102c8.42383,0,14.04102,4.46484,15.91309,7.12891 c1.2959,1.72852,1.08008,4.03223-0.21582,5.68848c-1.72852,2.16016-4.32031,1.94434-6.12109,0.36035 c-1.2959-1.15234-4.32031-4.17676-9.86426-4.17676c-4.8252,0-8.20898,2.52051-8.20898,6.04883 c0,2.30371,2.52051,4.24805,10.00879,7.12891c9.2168,3.52832,17.35352,7.41602,17.35352,16.27344 C118.90186,119.07295,113.93311,126.48994,102.48486,126.48994z" transform="translate(359.90873 -125.18887)" stroke-width="0" stroke-linejoin="miter" stroke-miterlimit="2" fill="#0f3460" stroke="#0f3460"></path> </g>
        <g id="path63621" aria-label="D" transform="translate(0 334.4504) translate(449.57769499999995 -49.50399999999999) scale(3) translate(-490.63625 50.4)"> <path class="c1" d="M113.60889,119.4333c-2.01563,1.65625-5.04004,1.44043-6.76855-0.57617 c-1.43945-1.72852-1.51172-4.46387,0.50391-6.48047c0.50488-0.57617,1.15234-1.2959,1.65625-1.87207 c2.16016-2.66406,3.38477-6.33691,3.38477-10.5127c0-10.44141-5.54492-15.98535-16.3457-15.98535h-8.35254v36.43457 c0,2.59277-2.16016,4.75293-4.82422,4.75293c-2.59277,0-4.75293-2.16016-4.75293-4.75293V79.5417 c0-2.5918,2.16016-4.75195,4.75293-4.75195h0.07227c0,0,0,0,0.07129,0h13.0332c15.98535,0,25.85059,9.57617,25.85059,25.20215 C121.89014,107.55244,118.93799,114.89717,113.60889,119.4333z" transform="translate(412.52637 -125.18975)" stroke-width="0" stroke-linejoin="miter" stroke-miterlimit="2" fill="#0f3460" stroke="#0f3460"></path> <path class="c3" d="M97.19189,125.19405c-2.5918,0-4.75293-2.16016-4.75293-4.75293c0-2.66406,2.16113-4.82422,4.75293-4.82422 c2.66406,0,4.82422,2.16016,4.82422,4.82422C102.01611,123.03389,99.85596,125.19405,97.19189,125.19405z" transform="translate(412.52637 -125.18975)" stroke-width="0" stroke-linejoin="miter" stroke-miterlimit="2" fill="#265897" stroke="#265897"></path> </g>
        <g id="path63623" aria-label="B" transform="translate(0 334.4504) translate(609.0464450000001 -49.50399999999999) scale(3) translate(-543.7925 50.4)"> <path class="c1" d="M111.62915,97.75948c2.16016-1.72852,4.39209-5.97656,4.39209-10.44141 c0-6.83984-5.32813-12.52832-15.33691-12.52832H85.77905h-0.07227c-2.59229,0-4.75244,2.16016-4.75244,4.75195v40.89941 c0,2.66406,2.16016,4.75293,4.75244,4.75293c2.66406,0,4.82471-2.08887,4.82471-4.75293v-16.84961h10.44092 c4.53613,0,8.49658,2.37695,8.49658,6.04883c0,2.23242-0.79199,3.60059-1.08008,4.89648 c-0.57617,2.23242,0,4.03223,2.16016,5.18457c2.3042,1.22363,5.18457,0.50391,6.48047-1.7998 c1.36816-2.37695,2.01611-5.04102,2.01611-8.35352C119.04565,104.38448,115.73364,99.70381,111.62915,97.75948z M99.96411,95.09541 h-9.43262V83.21455h9.43262c4.96826,0,7.20068,2.87988,7.20068,5.97656C107.16479,92.79073,104.0686,95.09541,99.96411,95.09541z" transform="translate(462.83816 -125.18975)" stroke-width="0" stroke-linejoin="miter" stroke-miterlimit="2" fill="#0f3460" stroke="#0f3460"></path> <path class="c3" d="M100.03589,125.19405c-2.66406,0-4.75244-2.16016-4.75244-4.75293 c0-2.66406,2.08838-4.82422,4.75244-4.82422c2.66455,0,4.75244,2.16016,4.75244,4.82422 C104.78833,123.03389,102.70044,125.19405,100.03589,125.19405z" transform="translate(462.83816 -125.18975)" stroke-width="0" stroke-linejoin="miter" stroke-miterlimit="2" fill="#265897" stroke="#265897"></path> </g>
         </g>
      <image xlink:href="" id="icon" x="0" y="0" style="display: none;"></image>
    </g>
  </g>
</svg>